<svg xmlns="http://www.w3.org/2000/svg" xml:space="preserve" viewBox="341 203 882 639"><path fill="#0e7aab" d="m1060.8 235 .6-1.8a25 25 0 0 1 41.4-10l.1.2q13.7 19.6-3.3 35.9c-1 .8-1.8 2.5-1.6 3.7q1.3 8.6 3 17v2.1l2 11v2l1 7.6 5.8 34-.1.6 3.2 17.7v2l1.9 9 .2 3 3.9 25v2.2l.1 10.8-.3 2-5.6 46-.5 2-2.8 18-.3.6-.3 2.4-.5 2-5 28-.2.5-.3 2.5-.7 2.9-1.4 9.1-.5 2q-1.8 8.2-2.9 15.7c-.2 1.8.6 4.2 1.8 5.4a24 24 0 0 1 5 29.6c-.7 1.2-1.6 2.6-1.7 4v26l1.2.3 20-42 .3-.2 8-15.6q-.2 0 .1-.3 9.2-14 17.9-27.7-.2-.1.2-.2 4.5-5 8.6-9.9h.2q.7-.6.9-1h.1q.7-.6.9-1h.2l.8-1h6.7v.4c.3 2.3.9 4.3.5 6.1q-2.5 11.3-5.4 22.4l-.4.7-12 29.8 1.6 1 21.2-21.1s-.2-.4.2-.3q1.5-1 2.3-2.1h.3l.8-1 .3-.1 22.9-17.8c2.6-2 5.5-2.9 8.6-.9l.1.4v6.3l-.3.2-14.9 25.7-.2.2q-1.6 2-2.7 3.8l-.2.3q-16.2 18.9-31.9 37.7s.2.2-.2.2q-10.4 9.6-20 19l-.6.4-11 9.6h-.2l-.8 1h-.3l-20.5 17.3.5 1.2 27.5-8.3 2-.2 24-5.8 3-.2c4.7-.6 8.6-1.7 12.6-1.6 9.7 0 19.4.7 29.1 1q0 .3.7 1.1.5 3 .4 5.4l-.2.1-.7 1h-.3l-.8 1h-.2l-1 .8h-.2l-14.6 8.1h-.3q-7.7 3-14.7 6h-.3q-15.2 5-29.7 10h-.4l-24 6-.8-.1-24.4 4.7 29.8 13.9q1.5 1 2.9 1.7l.1.2q1.5 1.1 2.8 1.8l.2.2q1.5 1.2 2.8 1.9l.2.2q8 7.6 15.4 15.1c1.3 1.4 1.7 4.8 1 6.3-.9 1.4-3.8 2.1-5.9 2.4q-3 .2-5.9-1-13.9-4.5-27.7-9.2l-.7-.4-44.1-15.9-.4-.2c-16.2-5.2-29.7 3.5-44 7.5q21.3 4.4 42 9a99 99 0 0 1 32.2 13c3 1.9 5.3 4 4.1 8q-.6.8-2.3 1.9-22 .3-42.2.2l1.5 5.9-.5.6-.7 1.4h-.2q-.7.4-.9 1h-.3c-13.7-.5-27.2-.6-40.5-1.7-10.7-.8-21.4-3-32-4.5l-1.5-.4c-16.4-1.6-32.3-3-48.5-4.7-9-.2-17.7-.2-27.8-.2 4.5.7 7.6 1.3 10.9 2 5.3 1.5 10.4 2.4 15.3 4Q949.2 743 970 750l.5.4 19.3 8.7.2.2q.5.4 1 .5l.6.5 15.3 8.7.1.2q.6.5 1 .6l1.8 1.5 9.1 8.6-.3 1.6-1 2.3q-2.3 1-5.5 1.9l-24.1-4.6-2-.5-11-3.3-47-15.5-.1-.2q-1-.6-1.9-.5l-1.8-.6q-1.4-.5-2.2-.5l-.8-.5-32-10-.3-.1a91 91 0 0 0-39-5.6l-2-.1c-3.1.3-5.5.7-8 1.1h-2q-9.2 2.5-17.2 5.3c-1.3.4-2.3 2.3-2.8 3.8q-2.7 7.8-5.1 15.8l-.2.1-.8 1h-.2l-.8 1h-.2q-.7.4-.9 1h-.2c-9.6 7.2-19.4 7.2-29.5 2v-.2l-1-.6-1.7-1.6-5.2-5.8-.2-.8q-.4-1-.8-1l-.2-1q-.5-1-.8-1.2v-.9l-1-2.8v-2.1c-1-5.2 3.1-11.3-4.2-13.7l-1.6-1.5-18.1-13.9q-.1.1-.2-.2-5-4.2-9.8-7.9s-.2.2-.2-.2q-1.5-1.4-3-2.4l-.2-.3-1.7-1.2q0-.3-.9-1l-14-10.9q-.1.2-.2-.2-7-5.9-14-11.2l-.6-.7-4.6-3.9q-24.3-19.7-49-40l-.9-.6v-.4q0-3 .5-4.8L677 666l.1.3 2 1.3q30 24.5 60 48.3c6.7 5.4 12.8 11.8 21.6 14.5 2 .6 3.4 3 5 4.5q4.2 3.5 8.4 7.5l2.7 2c-.3 5.7-2.2 11.5-.7 16.3 3.3 10.9 14.6 15.2 25.1 11.2a20 20 0 0 0 9.8-25.2l-.9-.8v-.3l-1-2.2q-1.5-2-3.1-3.7l-1-.7-.2-.3c-.3-1.1-1-2-.7-2.6q2.2-7.7 5-15.1l15.6-40.5q15-40.1 29.7-80.4 4-11.2 7.7-22.5l-7.6-2.9-1.7 5q-4.3 13.9-9.2 27.8c-6.6 17.7-13.7 35.2-20.2 53-8.9 23.8-17.3 47.8-26 71.7-.5 1.1-2.4 2.5-3.4 2.4-1.1 0-2.3-1.7-3-3q-1.2-2.6-1.9-5.9l-.8-3.1-1.2-2.6v-.4l-1-5.1-19.6-69.3-4.3-13.6-1-3.2-1.2-4.7-.9-2.2v-.7l-.2-1.1-1.9-6-1-1.7.1-.4-2-6q-.7-1.4-1.2-3c-1.1-6-2.3-11.4-3.6-17.6l95-21.7-2-7.6c-32.7 5.9-64.4 14.8-96 20.6l-3.3-11.6-.8-2.2-.1-.8-1-3-.1-1q-.4-1.1-1-1.7l.1-.4-1-2.7v-.4q-.5-4-1.5-7.1-4.5-15.7-8.5-31.3 2-1.2 3.8-1.7 8.9 29.1 17.5 58.2l83.6-18.7q-3.8-4-7.5-5.5l-30.4-12.6q-23.2-9.8-45.8-19.7l5.2-2.2 16.3 6.9 51.4 21.3q9.7 4 19.6 7.8l3.5-7.4q-1.8-1.3-3.3-2.9.5-2 1.4-3.4c7 2.9 15.2-1.7 17.5-9.2l1 4.7 2.2 5.4h-.3l-2 .7-4.8 2.2h-.3q-1.1.4-1.7 1h-.3q-.6.5-.7 1h-.3q-.6.4-.7 1h-.3q-.6.4-.8 1h-.2l-1.3 1.1c-7.3 11.4-3.4 24.1 8.7 28.3 3.3 1.2 7.1 1 11.1 1.6q4.8.5 8.8 1.4c-1.6 1-3.1 2.5-4.6 2.5-8.2-.2-9.7 5.7-11.2 11.8l-.6 1.9-46 124.5-6.4 17.9 28.3-14.7c36.5-19.1 69.6-43 102-68.3q5.7-4.6 11.9-8.1c1.6-1 5-.7 6.2.4s1.6 4.2 1.3 6.2-1.6 4.1-2.8 5.8c-6.4 8.7-12.2 18.1-19.7 25.8-10 10.2-21.5 19-32.3 28.4-.5-.4 0 .2.3.2 8.7-1.2 17.6-2 24.1-8.8q18.9-19.6 37.5-39.6c12.2-13.1 23-27.6 39-36.9 3.2-1.8 6.4-5.6 10.3-2.4 3.7 3.2 2 7.7 0 11-7 11.8-13.7 23.7-21.6 34.7-6.9 9.5-15.3 17.8-23 26.6 5.4-2 11.5-4 15.4-8q24.6-25.2 48-51.5c13.4-15.2 26-31.1 39.2-46.6q1.6 2.1 2.8 4.2c-4.8 5.9-9.7 11.3-14.4 17-20.9 25-40.5 51.2-64.2 74A83 83 0 0 1 951 704l.2-.3c26.3-20.8 48.4-44.4 60.4-76.3a127 127 0 0 0-21.4 17c-18.6 19.5-36.7 39.5-55.3 59a25 25 0 0 1-12.2 7.2 685 685 0 0 1-44.6 7.5q-.1-1 .1-1.4c32.3-15.8 59.4-36.7 76.3-69-44.7 34.7-90.9 67-142.9 90.7 1.5 2 2.3 3 3 4.2l1.8 3.5 5.8-2.7a71 71 0 0 1 47.8-4.9c16.3 3.8 32.3 9.1 48.3 14.2 22 7 43.9 14.5 66 21.5 8.4 2.6 17.2 4.3 25.8 6.4l.6-2.2c-45.2-30-95.8-43.5-150.1-48.1 7.2-.9 13.8-1.3 20.3-2.6 27.8-5.3 55.7-2.4 83.5-.2 17.3 1.3 34.4 5.7 51.7 8 9.7 1.2 19.5 1 29.3 1.4.8 0 1.7-1 2.5-2.1q-.1-4.7.5-8.7 1 0 1.8.4.5.5 1.5.4l38.3 1.7q0-1 .3-2c-30.3-15-63-19.7-96.4-22.4 4.7-1.8 9.4-3 14-4.6l41.7-13.8a7 7 0 0 1 3.4-.1 290 290 0 0 1 57.1 18.9c10.3 4.2 20.3 9.3 31.9 9.7l.4.2-.4-.9c-21-22.5-46.9-34-77.5-35.6q3-1.4 6-2 25-4.8 49.8-10a297 297 0 0 0 68.5-23c3.4-1.6 6.5-3.8 9.8-5.7l-.6-1.3c-43.6-.8-83.5 13.9-123.2 29.9q23.3-20.4 47-39.8a365 365 0 0 0 66-69.7c5.2-7.2 9-15.4 13.6-23.3v-.8l-.9.6c-4.6 3.3-9.1 6.1-13 9.8a1528 1528 0 0 0-40.5 40.5c-8.1 8.5-15.3 17.9-23.2 27l-.8.8h-.4q-1 .1-1.2-.4 1-2.3 2-4 19.1-28.8 31-61.6c3.5-9.4 5.9-19.2 9-29v-1.5q-.2.6-1 1.4-6.2 6.3-11.3 12.9c-17.1 23.2-27.3 50-40.2 75.5-5 10-11 19.3-16.6 29q-1 1-2.5 1.8c8.3-19.2 5.5-38.6 4.3-58h.2l.7-1 .3-.1.7-1h.3l.7-1 .3-.2.8-1.8.3-.1c3.4-5.7 3-11-.4-16.5l-8-8.8v-4c2-12.2 4.1-23.9 6.3-36l.7-3 3.5-17.7.4-2.3 3.8-20 .2-2q1.5-10.7 2.6-20.6l3.4-35.3v-2.2c.2-3.5.7-6.6.3-9.6q-3-21-6.3-41.7l-6-35.4-.6-2.3q-1.8-14.3-4-28-1.9-11.4-4.1-23v-.9l.9-5.5h.2l1.7-1 .3-.1.7-1h.3l.7-1h.3l.7-1h.3l.7-1 .3-.1.8-1.9h.2l.7-1 .3-.1q.6-1.6.8-2.9l.3-.2q.4-4.6.5-9l-.8-2.2-1-2-.1-.9-1-1.7-.1-.2q-.4-.7-.9-.8v-.3l-1-.8v-.2q-.4-.6-1-.8v-.2q-.4-.6-1-.8v-.2l-1-.7v-.4l-4-1.7-.2-.3q-6.3-3.2-12.2.3l-.9.2-.8.8h-.4l-5.8 4.2-1 1-.8 1.9-.2.1-.8 1.9-.2.2c-3.5 5.7-2.2 11.2-1 16.8q-1.6 1-3 2.2-38 29-75.5 57.9Q958 333.4 928 357q-7.7 6-15.7 12.5c2 2.3 3.5 4 5 6 8.5-6.6 16.7-12.6 24.5-19 9.6-7.6 18.7-15.8 28.3-23.5 6-4.8 12.8-8.8 19-13.6q34-26.2 68.2-52.2 3.8 3.5 6.6 7.3-2 5-4 9.4l-8.9 18.4-49 104.9q-3.7 7.8-7.1 15.8c6.6 4.3 6.9 4.3 9.7-2 8.3-17.9 18.9-34.8 23.7-54.2q.5-1.8 1.8-3.5c2.3-3.9 5.1-7.5 7-11.5 6-12.8 11.5-25.8 17.6-38.6a882 882 0 0 1 17.6-35.1q2.7-.6 5-.7-13.2 29.2-26.5 58L1008 426c-1.3 2.7-1.3 4.7.3 7.3a22 22 0 0 1 2.4 20.6c-1.3 3.1-.6 5.1 1.4 7.5q20.8 25.3 41.3 50.8c5.4 6.7 10.6 13.6 16.4 21-3.3-18.5-6.7-36.1-9.3-53.8-4-26.6-6.9-53.2-2.7-80 .5-3 1-5.8 4.4-6.5 3.7-.7 5.4 1.9 6.5 5 2.5 7.5 5.5 15 7.3 22.7 3.6 15.6 6.6 31.4 9.7 46.2 2.4-13.2 4.6-27.5 7.6-41.7s7.7-28.1 4.6-43.3q1-.7 1.6-.5 1.6.6 3.3 2l1 21.9q0 .8-.3 1.6-1.4 3.6-2.3 7.4l-.3 2.1-3.2 16.8-.2.7-2 9.3q-.4 1-.5 2.2l-1.3 9.8-.2.8-.8 5.2-.2.8-3.4 23.3-.1 2.2-3.4 36.4q-.4.1-.6-.5c-1.3-13.3-3.1-26.1-3.9-39q-1.5-28.7-8.4-56.6c-2.2-8.6-5.3-17-8-25.6l-1.6.3q0 4.4-.5 8.7c-3.3 19.6-.9 39 2 58.4q2.9 21.1 6.4 42.3c1.7 10 3.9 20.1 5.8 30.6v3.7q-1.6.8-3 .7l-3-4.2-4.2-5.2-12.8-15.8-4-5-23.6-30q-8.3-10.4-16.2-20.8a11 11 0 0 0-2.8-2.8l-3.3-1q-1.8-1-2.8-2.4l1.9-2.7c7.7-9.4 2.9-27.4-12.5-29.7-6.8-1-12 2.4-17.2 6.6l-4-5-50.9-32-5 6.7q26.9 16.5 53.5 33.3l3.2 3.6c-1.4 14.6.7 18.5 12.8 24.9q.1 2-.4 3.5-1.3 1.2-1.5 2.3l-5 50.5-7 63.9-.7 6.3-1.8-.1-.1-3.2c0-1.8.9-3.8.4-5.4l-16-46.7q-6.5-18.6-12.8-37.3c-.4-1-.2-3 .6-3.8q6.3-5.9 12.9-11.8l21-19.3-5.1-5.4-33.2 29.9-11.3-34-15-44.2q-1-4-1.5-7.6c6.8-4.6 10.2-12.2 8.3-19-2.2-7.8-6-14.6-15-15.2-4.5-.2-9.2 1.4-13.7 1.8l1.7-5.8h.4q1.7-.4 3-1.2 1-.5 2.1-.2 5 .5 10 .6c5.9 3.7 8.7-.6 11.9-3.8q-.2 0 .2-.2 16.1-12.5 31.6-25h.3q9.7-7.5 18.8-15h.2l1-.8h.2l16.7-13q-.2-.1.2-.2 2.3-1.5 4-3.1l.7-.3 28.3-22.4 4.6-3.4 16.2-12.6h.2q10.5-7.6 20.2-15.3c1.1-.9 2-2.6 2-4q.4-5 .2-9.9m-15.4 66.9 12-25.2-1.5-1.3c-2 1.2-4.2 2-6 3.5l-31.8 25-95 74.5c-1.3 1-2 3.4-2.2 5.3-.3 2.7 0 5.5 0 8.7q22.6 14.1 45.3 28.7c5.1 3.4 9.9 6.5 16 2.4q1.2-.7 2.9-.7c3.5-.2 5.4-2 6.9-5.2 17.6-38.4 35.5-76.6 53.6-115.6M845.2 568.6l-89.7 20c13 45.3 26 89.7 39 135.1l3.6-9.8 50.2-136.1c1.5-4 1.6-7-3.1-9.2M934 422.5l-19.3-13-1 .9 23 69.5 18.5-16.9c5.2-4.7 11.6-8.9 8.2-17.6v-.5c1.2-3-.6-4.5-3-6q-12.7-7.7-26.4-16.4M970.7 524l5.8-56-3 2.3Q959.9 482.8 946 495c-2.4 2.2-2.6 4-1.6 6.9l20.5 58.3q.4 1.2 1.5 3z"/><path fill="#0e66ac" d="M469 582q-.4-.2-.9-1.2c-7-7.7-8.5-16-5.7-25.5l.2-.2c3-4 5.9-7.7 9-12l-5.6-10.5q-5.8-7.6-11.6-14.8l-.5-.9q-.6-.8-1-.7l-.1-.4q-12-11.6-23.9-22.6l-2.6-2.7-56.2-49.6v-.2l-1-1v-.2c-2.3-4.7-7.8-7.3-6.8-13.3q-.2 0 .1-.2.4-.5.4-1c.3-.3.5-.6 1.4-1 2.6.3 4.7.1 6.4.8l17.3 7.4.2.2c22.9 11.8 41.7 28.4 60.2 45.7-6.3-10-12.4-20.2-20-29a1202 1202 0 0 0-43.5-47.5 207 207 0 0 1-31.5-39.7l-.2-2 1.3-3.7.8-.3q.9-.4 1-.8h1c3.7 1 7.2 1.5 9.8 3.3 9.8 6.7 19.3 14 28.9 21l1.7 1.9 1.4.8v.2l24.6 25.2-5.5-20.8v-1.8l-5-22v-2q-1.3-6.9-2-12.5c-2.2-16.2-1-32.2 1.1-48.2l.2-.3q.4-1 .4-1.9l.6-1.9c1.4-4.7 2.8-8.7 8.4-7.8l.1.1 1 .7.1.2 1 .8v.2q.5.8.9 1l.1.8.8 1.1v.3l5 17.6.2 2 2 9v2l3.9 19v2l2 10v2q.5 2.2 1 3.5l-.2.7 10.2 55.8c1.2-4.5 1.4-9 1.7-13.3l3.2-41.8.5-2 1.5-10 .6-2.9L461 323l.5-2 2-12 2.5-18 .5-1.6 3-18.4c0-3.9 1.5-8.6-.1-10.1a28 28 0 0 1-9-26.7l.2-.3a24.6 24.6 0 0 1 42.3-9.5l.4.8q6 8.6 5 18.3c0 1.4.5 3.5 1.5 4.3l40 30.5q.1-.1.4.2 6.8 5.7 13.7 10.7l.1.2 1 .7.2.3q8.4 6.7 16.7 12.8l.3.3 17.7 13.7.1.2 1 .7.2.2 15.6 12q.1-.1.3.2 1.5 1.4 3 2.4l1.6 1.5 13.5 10.4 1.5 1.5 18.6 14.7 5.9 4.6 4-1.5h.3q1.2-.5 1.9-1h1c8.3-2.5 15.1 0 21.6 4v.2l1 .8.1.2 1 .7v.2l1 .8.1.3c2.8 2.2 2.2 7 7.2 7l71.5-.7c1.4 0 3.4-1.2 4-2.5q4.3-9 8.2-18l.3-.2 2.6-3.1q.8-1 1-1.8h.4q.9-.7 1.2-1.5h.5c1.8.4 3.4.4 4.6 1 1 .5 1.6 1.8 2.3 2.7q-1.4 1-3 1.5c-.7-.1-1.7-.2-2 .2-4.2 8-9 15.9-12.4 24.3a437 437 0 0 0-13.5 40.5c-5.4 19.1-10 38.3-27.7 50.6-1.5 1.1-2.4 3-4 4.7l-3.7 2c-11.9-6.6-20-4.8-29 6q-2.9.1-5.5-.4a22 22 0 0 0-4.8-2.7q-16-5.6-32.1-10.7c-10-3-20.1-5.5-30.4-8.5l-26-8.7c-1.8-.5-3.3-.7-4.8-1.4q-.1-3.2.4-5.6 2.6-4 4.7-8.3 8-5.7 16-10.7 18.9-11.6 38.2-23.2l-4-6.7-34 21-22.7 15-5 1q-2.2-.8-3.6-1.6c-8.4-4.2-15.3-3.2-21.5 2.4-6.6 6-7.3 15.6-4 22.8 1.7 3.7.6 5.8-1.8 8.4l-63.5 78.4 6 4.6 2.8-3 11.5-15q16.9-20.4 33.5-40.8c4.7-5.8 8.8-12 13.5-18.1q1.8-1.3 2.7-2.5c2.8-5 6.9-1.2 10.3-1.3.8 0 2.1 2.7 2.6 4.4q2 8 3.8 16.6l1 3v1l4 18.4q8.7 38.5 17 77.2-2.4.7-4.4.8-3.1-11.6-5.6-22.7l-20.5-90.5c-.3-1.3-1.3-2.5-2-3.7-1.1.8-2.6 1.4-3.4 2.4L509.3 550c-3 3.8-.3 12.3 4.4 14q40.6 15 81.3 30.5 0 1.1-.3 1.6l-3.1 2q-3-.5-5.1-1.4-38.8-14.1-77.7-29l-4.5-2c-.6-9.8-6.1-17.8-13.4-19.4-2.4-.6-4.9-.6-7.3-.9l1.4-7.3 19-77.7c3.5-13.6 7.5-27.2 10.6-40.9 1.6-7 1.9-14.5 2.7-21.8l-1.8-.3c-17.3 25.6-23.8 55.2-31 84.7q-4.9 1-9.4 1.5c.6-13.7 1.6-27 1.8-40.2q.1-16.8-1-33.4c-.5-7.6-1.9-15.1-2.6-22.7-.9-9.2-2.7-18.6-1.9-27.7 2.2-24 5.7-47.7 8.6-71.5l3.3-28.2c3 1.2 6.1 1.5 6.8 3q9.7 20.8 19 41.7 10.8 25 22 49.6 13.6 29 27.3 57.7l8 15.6 5.8-3.2q-1-3.2-2-5.6l-29.1-63.5-16-34.3-28.1-61.2c-1.4-3-.3-4.1 1.2-5 2.3 2.5 4 5 6.2 6.6q25.6 19.4 51 39l91.3 70.8c2.6 2 5.4 5.6 10.3 2.4q.5 4.4-.5 8.3c-2.1 7.8 1 17.3 7.3 21.2a20 20 0 0 0 23.7-1.7c8-7 7-19.1 2.6-25.5-5.7-8-16.7-10-25.5-5.3-1.4.8-4 1-5.2.2q-17.2-12.6-34-25.9l-46.5-36.7q-36.7-28.4-73.7-56.3c-2.2-1.7-3-3.2-2.6-6.5 2.1-16.4-9.8-26-23.6-22.6-8.3 2-12 8.4-13.5 16.3-1.3 7.3 2.1 12.7 7.3 17.5 1.5 1.4 3.2 3.8 3 5.5-2.3 17.2-5.2 34.4-7.4 51.6-1.8 14.4-3 29-4.8 43.6q-2 5.9-3.6 12.4c-.9 10.3-2.3 20.2-2.6 30.1q-.4 22 .4 44c.2 6.8 1.8 13.6 2.7 20.4q-3.4-7-5.6-14.3c-3.3-9.7-7.4-19.3-9.8-29.3-3-12.8-4.8-26-7.1-39L424.8 310c-.9-4.7-2.8-9.2-4.2-13.8l-1.4.1-2.2 9c-2.2 15.3-3 30.8 0 46q5.4 27.7 12.4 54.9c3 11.8 7.8 23.3 11.8 34.9l1.1 2.7.3 2.4c-20.5-34.4-44.8-64.7-80.8-83.8 4.4 12.1 13.1 21.1 21.5 30.2 13.6 14.9 28.2 28.8 41.5 43.9a170 170 0 0 1 33.6 52.6q1.7 4.5 3 9t2.6 9a205 205 0 0 0-93.3-75.8q3.8 6.7 9 11.8c10.9 9.8 21.7 19.7 33 28.8 9.6 7.6 18 17 30.3 20.7q1.4.6 3 2l-3 2.7c14.3 14.6 28.4 29 34.6 48.8l-5 4.9c-7.7 8.5-8.1 19.8.7 26.4 6.1 4.5 6 8 3.9 14.4-6 17.7-10 36-19.4 52.6a2868 2868 0 0 0-24.5 44l-9.5 18.8 1.2 1q3.9-3 7.5-6.3l19.5-19.7-1.5 5.4c-1.3 3.9-6.2 8 .5 11.8q-1 3-2.4 5.6l-2.8 2h-1q-1.7 0-2.8-.3l-.2-3.1c-.6-.3-1.6-.6-2-.2q-7.5 6-15 12.4h-.3l-5.3 1-.2-.2-1-.4q-.4-.2-1-1.4c.4-3.6.3-6.7 1.5-9.3q5.8-12.2 12.1-24c7.3-13.5 15.3-26.5 22-40.3 6.5-14 11.9-28.5 17.5-42.9q2-5.5 2.8-11.5c.2-1.1-1.2-2.5-2-3.7l-.1-.3zm27.8-46.7 58.6-72c1.8-2.3 2.1-3.9 1-6.7a22 22 0 0 1 2.6-22.7c2.3-3.1 2.1-5.3.6-8.4L496 290l-8.3-19-9.4 76.2c-1 8-3.3 16.2-1.9 23.7a387 387 0 0 1 5 86.6q-.2 5.3-.1 10.4 3.1-7.2 5-14.6c5.7-20.5 12-40.6 24.2-58.3 2.2-3.3 4.5-7.5 9.3-5.7 4.7 1.7 3.7 6.4 3 10-4.3 22.2-8.2 44.5-13.4 66.5-5.4 23.1-14.4 45.4-16.8 69.2l-.6 5.5 1 .1zm32.3-219 45.8 98.7c2.3 5 4 9.8 10.7 9.5 1.5 0 3 1.3 4.7 1.6 1.5.2 3.6.4 4.8-.3l51.8-32c.8-.5 2-1.2 2.1-2 .4-3.8 1.2-8 .5-11.7-.4-1.8-3.6-3.2-5.6-4.7L519.6 279q-4.2-3-8.8-5.5l-.7 1zm211.2 144.4a46 46 0 0 0 15.1-24.1q3.9-14.5 8.2-28.8 2-6.4 3.9-11.8-30 .2-59.7-.2c-6.4-.1-11.6.8-14.4 7.3-.6 1.4-1.2 3.4-.7 4.7l23.9 57c.4 1 1 2.4 1.9 2.8 7.5 3.6 12.5 2.6 18.5-3.5zm-41.2 9.5q-10.7-25-21-50.1c-2-5.1-3.7-10-10.5-9.7q-1.5-.1-2.7-1.1c-3.9-3.6-7-1.4-10.5.8l-47.5 30.6c-1.4.9-2.2 2.7-3.3 4 1.5 1.1 2.8 2.6 4.4 3.1q43.7 14 87.5 27.6 2.2.5 4.6.5zm6.5-79.3q30.2-.6 60.3-.9c6.1 0 5.5-4.1 6.3-7.2h-72.8v8zm0 80.9c7.3-2.6 7.5-3 4.4-9.8l-7-16q-8.6-20-17-40.4l-6.4 4.7 14.3 34.6q5.4 13.2 11.7 26.9"/><path fill="#0d69a7" d="m794 355 3-1.8c-.8-1-1.4-2.2-2.4-2.7-1.2-.6-2.8-.6-4.4-1.2q3.1-.9 6.7-1.1l.1.2q1.2 2.5 2 5v7l-.4 2.7-2 13.3 1.3.3 3.1-15 2.1-8.9c5.4-22.5 10.6-45 20.8-66 1.1-2.3 4-3.9 6.1-5.8l.8.4 2 1q.5.5 1.2 1.8c.4 3.4 1 6.2.8 9q-.6 16.9-1.7 33.8 0 .9-.5 3l-3.6 17.7-4 16.1 1.5.5c10.7-13.5 16-30 23.5-45.3l.3-.2 12-27.6.2-.3q9.1-21 17.8-41.6l.3-.2 8.6-17 .2-.2q4.1-2.5 7.6-5c1.2 2.7 3.5 5.3 3.6 8 0 6.3-1 12.7-1.5 19q0 .6-.5 2l-4.8 19-.2.3q-5.3 14.7-10.3 29.7c16.3-16 33.8-30 55-38.6h5.5l.1.1 1 .8v.3l-2 9.4-.2.2c-3.5 4-6.3 8.1-9.9 11.6q-18.7 18-38.2 36.2-7 5.1-13.5 10.2l.8 1.2 14.6-9.2q9.4-4.2 18.4-7.7c5-1.9 6.6-.8 8.2 4.6l-.4.7-.6 1.3-.4.2c-17.6 20-39.2 35.1-61.2 51.5 4-.2 6.8-.7 9.5-.5 3.4.2 5-1.3 7.2-3.9 2.8-3.4 7-5.8 10.5-8.6L886 371a3 3 0 0 1-2 1.2l-4.3 5c-3 3.3-6.4 3.3-10 2.6-2-.3-4-.9-5.8-.5-1 .1-1.9 1.9-3.2 3-6-1-10.1 2.5-14.7 4.7-.4-1.3-.7-2.1-.8-3.3q1.4-1.7 2.7-2.7c15-11.7 30.4-23 45.2-35 7-5.6 12.9-12.4 19.5-18.7l1.6-1.3h-.4l-2.2 1q-3.9 1-6.9 2.3a284 284 0 0 0-47 29.8q-3.6-1.4-6.5-3.3c11.8-10.5 23.1-21 35.2-30.6 15-12.1 29.7-24.5 42.3-39.3q4.4-5.6 8.6-11.5l-1.2-1.4c-6.6 3.8-13.5 7.2-19.7 11.4-20 13.8-36.8 31-52.1 49.8q-2 2-4.3 3.7c8.6-16.3 17.3-32 23.3-49.3s11.7-34.2 11.3-52.7q-1.8 1.5-2.5 3.1-15.4 34.9-31 69.6c-6.7 14.7-13 29.6-20.9 43.6-6.6 11.7-15 22.2-23 33.1-3 4.5-6.7 8.5-10.1 12.8v-.3q0-1.5.3-2.7.6-.4.7-1.2c0-.5 0-.6.2-1.1 14.3-33.2 23.3-67 21-103.2q-1.7 1.2-2.3 2.7-7.3 21.3-13.9 42.5c-3 10.3-5.4 20.9-8.4 31.3-3.3 2-6.2 10.4-4.8 13 .3.5 1.4.7 2.1 1.4q-1.3 5.6-2.8 10.6h-.5a10 10 0 0 1-3.7-1.4l1-6.1-4-.7q-.6-.4-1-1.2a25 25 0 0 1 1.4-5.7c1.5-2.4 3.3-4.8 3.5-7.2s-1.2-5.1-1.8-8.1z"/><path fill="#0e75a7" d="M646 641.8q0 2.1-.3 4.8-.6.6-.7.5l-.1-.3q-.4-.7-.9-.5l-.6-.7-17.6-14.3-1.8.7 4.8 32 .1 2.1c3.5 23.3 5.5 46 4 68.9-.4 5.1.5 10.8-3.9 15h-.3c-5.4 1.8-7.6-1.4-8.7-5.3q-6.5-22.8-12.8-45.8v-2l-1.8-61.9c-.3 1-1 2.3-1.3 3.7q-4.5 18.4-8.5 36.8c-3.2 16.1-5.7 32.3-8.5 48.5l-.6 1.9c-4.4 21.7-8.3 42.9-17.4 62.6-1.1 2.4-3.4 4.2-5.2 6.2l-1.8-.2c-2-2.9-4.5-5.4-5-8.3a130 130 0 0 1-.6-41.8l.5-2.7.3-3 .8-6 .4-2.4q.4-1.8.5-3.5 0-.4.3-1l.8-5 .7-3 .1-1.1.5-2.6q3-11.4 5.5-22.3-.6 0-1.3-.4l-6.6 19.8q0 .4-.3.9l-.9 3.2-1.1 3.8-.8 3q-.4.8-.4 1.5l-.5 1.6-.4 1.6-.7 2.4q0 .8-.4 1.5l-1.7 6.6-12 44.5-.3.3L534 801l-.4.6c-3.6 8-6.7 15.8-10.3 23.4-1.5 3.3-4.4 4.7-8.2 3v-.3l-1-.8v-.3c-.6-6.4-1.7-12.3-1.6-18.2 0-8.2 1-16.3 1.6-24.4l.5-1.5 5.2-23.6c.2-1.3 1.4-3.4-1.7-2.3l-1-7q.5-1 1.3-1.6 2.2 2 3.9 3.9l.2-1q2.3 1 4.7 2.6-.5 2.5-1.5 4.5c-1.7.5-3.8.8-4.3 1.8a18 18 0 0 0-.2 14.9c-3.4 15.6-4 31-3 47l1.5-1a208 208 0 0 0 18-54.2c.4-1.5-.1-3.3.4-4.7 1.6-4.2 3.8-8.1 5.1-12.3l20.2-65.4 1-1.3 1-1.8.8-2h.2l.7-1 .3-.1.8-1.9h.2l.7-1 .3-.1.8-1.9h.2l.7-1 .2-.2 1.2-2 1-1.7 8-12.2q3.5-4.1 6.5-7.3-1.6 4-2.7 7.3c-6.8 22.7-14.1 45.3-19.8 68.4-3.2 13.4-4.1 27.5-5 41.4-.6 6.8 1.2 13.7 2 20.6l2.2.2c3.5-10.5 8-20.8 10.3-31.6 5.2-24.3 9.3-48.9 14.3-73.3 3.4-16.7 7.6-33.2 11.4-49.9.2-1.1-.4-2.5-.5-4q1.5-1.5 3.1-2.6h.8v.3l2.2 1.6.8.3q1.5.9 3.3 1.5l2.1.2c4 1.7 7.2.7 10.3-1.8l2.6-.2q2.9.5 5.6 1.4zm-32.7-7.8c-.4 1.4-1.2 2.8-1.3 4.3-.7 10.9-1.7 21.8-2 32.8a177 177 0 0 0 9.1 54.9c1.7 5.6 4 11 6 16.6q2-2.4 1.8-4.3c0-13 1-26-.1-38.9-1.9-21-5.1-41.8-7.7-62.7-.5-3.4-2-4.4-5.8-2.7"/><path fill="#0e6fa7" d="m441.8 704 .2 3q.5 2.5 1.1 4.4l-4.4 17.8 1.8.7c5.2-6 10.5-11.8 12.6-20.2l4.4-5.8a105 105 0 0 0 24.3-45c.9-4 1-8 1.6-12.1q-3.7-1-6.4-2.3-.1-2 .5-3.4l6-.2q2 .1 3.6.7 4.9 4.9 10.4.2 6.5-.4 12.6-.2 5.4 1.6 10.9 2.3 4.1.5 4.4-4 4.9-.6 9.8-.9c4.1.4 8 1.1 11.6.6 1.6-.2 2.8-2.9 4.6-4.5l2.6-.2q.7-.2 1.3-.7c3.1-.5 5.8-.9 9-1.2l10.6 1.2-.9 6.2-.1 1.5h-.3l-2 1-2 1-21.2 10.8-68 34.6c-7.5 3.9-14.7 8.1-17 17.3q.8.2 1.8.1c20.5-6 40.4-13.2 58.8-24.3q10.4-6.3 21.3-12.3a66 66 0 0 1 5.5 7l-2.1 2.7-.8 1.1h-.3l-1.9 1.2-4 3.8-.8 1h-.2l-.8 1h-.2l-.8 1h-.2l-.8 1h-.2l-.8 1h-.3l-1.5 1.1-.3.2q-.6.3-1 .9-.7.3-1 .9-.7.6-.8 1h-.3l-.8 1h-.2l-.8 1h-.2q-.6.4-.8 1l-.3-.1-1.8 1.2-3 3q-.7.5-.8.9h-.3l-.8 1h-.2l-.8 1h-.2l-.8 1h-.3l-1.5 1-.3.2-2 1.9q-.7.3-1 1-.7.5-.8.9h-.3l-.7 1h-.3l-.7 1h-.3l-.7 1h-.3q-.6.5-.7 1h-.3q-.6.5-.8.9h-.4q-1.5.8-2.4 1.5-29 23.7-57.4 47.7c-5.4 4.7-9.8 10.6-14.9 16h.6q1.9-.4 3.2-1c14.5-4.8 27-13.4 39.5-21.7l6.6.9q-1.8 2.2-3.8 3.6l-35.5 21q0-.2-.7 0l-16.7 4.3a25 25 0 0 1-3.4-4.5l5.7-7.7.7-1 .3-.1q5.5-5.6 10.9-10.6 10.4-9.2 21-18.2l.2-.1 23.8-19.8s-.2-.1.2-.1q21.1-17.9 42-35.9 6.4-5.3 12.2-10.4l-.7-.9-12.3 8-35.8 17h-.3l-23 8q0-.1-.8 0a15 15 0 0 0-12.5 8.1c-2.5 4.4-6.3 8.1-9.8 11.8a20 20 0 0 1-6.5 4.3c-3.6 1.5-7.6-1.7-6.5-5.3q4.4-13.5 9.4-26.9M556.3 639a278 278 0 0 1-63.7 8.2c-1.2 0-3 2-3.5 3.4l-10 32.2-.4 1.7c.6-.4 1-.8 2.3-1.4l54.7-28.5q10.4-5.3 21.9-10.7.4-.4 1.2-.7l.8-.3q.3-.4 1.2-.7-.1-.1 1-.3l7.1-3.8-.5-1.6-10.2 2.4z"/><path fill="#0d7bad" d="m517 750 1 6.6q0 .4-.2.6l-.8 1.8h-.1l-.4.3v1c-7.5 12-14.6 24-22.5 35.5a107 107 0 0 1-28 29.4c-2.8 2-6.6 2.5-10 3.7v-.2q-.6-.5-1-.6l-.2-.4-.9-7.7.5-.8 7.8-19 .3-.3 2.5-4.5q11.4-17.7 23.2-35l7-1c-14.2 19.6-28 38.8-35.6 63.3A99 99 0 0 0 491 791c9.2-13.4 17.4-27.4 26-41.2"/><path fill="#eff9fc" d="M353 362a224 224 0 0 0 31.8 39.6 1202 1202 0 0 1 43.5 47.4c7.6 8.9 13.7 19 20 29-18.5-17.2-37.3-33.8-60.3-45.6q8.9-1.1 15.6 5.5c3.4 3.3 7.6 5.8 11.6 8.5.7.5 2.3.6 2.7.2.7-.7 1.3-2.3 1-3a36 36 0 0 0-5-8q-6.5-6.9-13.3-13.6l-20.3-21.1q-3.1-3.2-6.1-6.8-7.5-9.3-14.7-18.9-4.1-5.6-7.8-11.4c-.2-.3.6-1.2 1.2-1.8m234.5 361.8q3.6-24 8.2-48.3c2.4-12.3 5.6-24.5 8.5-36.8.3-1.4 1-2.8 1.3-3.7l1.6 61.6c-6.9.3-9.5-3.4-5.6-8.9s2-11.3 2.6-17.5c-5.3 1.4-7.3 3.7-6.2 9 .7 3.2-.5 7-.8 10.4l-1 6.8c0 3.7.2 7.1-3 10-1.3 1.3-1.5 4.7-.8 6.6 1.7 5.2-.2 8.3-4.8 10.8m-26.2-9.3q0 .9-.4 2.3-.6 1-.1 1.2 0 1-.9 3-.7 3-.7 5.1.1.1-.4 1-.5 2.1-.4 3.5.1.8-.5 2.3-.7 3.5-.7 6.1c0 .8 0 1.5-.4 3l-.4 2.6q-2.7 21 .8 41.6c.5 2.9 3 5.4 4.7 8.4-2.8 1.2-7.4-1.8-7.1-4.6 0-.6.5-1.6.4-1.7-7-3-2.1-10.5-5.7-14.9-.5-.6.5-2.4.7-3.7.3-1.6 1-3.3.6-4.7s-2-2.6-3-3.9c-.4 1.7-1.4 3.5-1 5 .8 2.8 1.3 5-1.4 7.4-1.2 1-1.7 3.2-1.6 4.7.3 2.8-.7 3.7-3.6 3.7q5.4-22 12-44.8 1.3-3.7 1.7-6.7-.1-.3.4-1.4a8 8 0 0 0 .6-2.5q-.1-.4.4-1.5t.5-1.7q-.3-.4.4-1.3.8-2 .8-3.2.3-1.5 1.2-3.7.8-2.1.8-3.3-.1-.2.5-.5 1.2 1.4 1.8 3.2"/><path fill="#ebf7fc" d="M471 583.4c.7 1 2 2.3 2 3.4q-.8 6-2.9 11.5c-5.6 14.4-11 29-17.6 42.9S438 668 430.6 681.5q-6.3 11.8-12.1 24c-1.2 2.6-1.1 5.7-1.7 9-2.8-.7-4.6-5.4-3.4-7.8 4-7.7 7.6-15.6 11.8-23.2 2.3-4.2 5.7-7.7 8.2-11.8 1.9-3 3.1-6.2 4.7-9.3l2.2-4 5.7-10.3q4.8-8.8 9.3-17.6a17 17 0 0 0 1.7-7.1c0-4.9 7-7.3 4.3-13.1-.4-.8 1-2.7 2-3.8 5.2-6.2 3-15.1 8-21.3.3-.3-.1-1-.3-1.8"/><path fill="#edf8fc" d="M1123.7 564q-9.5 21-19.7 42l-1.2-.2v-26.1c0-1.4 1-2.8 1.7-4a24 24 0 0 0-5-29.6 7 7 0 0 1-1.8-5.4q1-7.4 3-15.4c1 4.7 4.7 9.7-.2 14.8-.6.6.8 4.6 2.2 5.5 3.6 2.2 5 5 5.4 8.9a9 9 0 0 0 2.4 4.4c3.3 3.7 3.2 5.9-.4 9.1-.8.7-1.9 1.7-2 2.6q-.2 5.4 0 10.7c5.2 0 8.2-3.2 8.4-7.5.2-4.5 1.2-8.8 7.2-9.7"/><path fill="#f4fbfd" d="M1098.5 731c.8-4-1.5-6.1-4.5-8a99 99 0 0 0-32.2-13q-20.7-4.7-42-9c14.3-4 27.8-12.7 44.1-7.5q-11.5 2.4-24 4.5.9 1.8 1.2 2l24 8c5.3 1.7 11.1 2.2 16.2 4.5 5.4 2.3 10 6.1 15 9.3q2.2 1.3 4 2.9l3.4 3.8q-2.3 1.3-5.2 2.5"/><path fill="#ebf7fc" d="M887.8 364.8c-3.7 2.7-7.8 5-10.6 8.5-2.2 2.6-3.8 4-7.2 3.9-2.7-.2-5.5.3-9.5.5 22-16.4 43.6-31.4 61.2-51.5-.6 1.8-1.3 4-2.5 5.7q-3.9 4.8-8 9.5-.9 1.5-2.2 2.5l-16.3 12q-1.9 1.7-2.4 5.3c5-2.5 8.9-3 13.7.2 2.2 1.5 6.8-.8 10.8-1.3-2.8 3.3-5.6 7.6-11.8 3.8q-5.5-.6-10-.7-.6-.1-2.2.4z"/><path fill="#eff9fc" d="M629.4 750c4-4.2 3.1-9.9 3.4-15 1.6-22.9-.4-45.6-3.8-68.6 5.4 3 6.6 7.2 5.5 13.6-1 5.8-2.6 12.5 2.4 18 .6.6 1 1.8 1 2.7-.3 13.4-.2 26.8-1.2 40.1-.3 3.4-2 8.1-7.3 9.2M456 829.2c3.4-1.5 7.2-2 10-4a107 107 0 0 0 28-29.4c7.9-11.5 15-23.5 22.7-35.7l.3-1 .3-.2.8-1.9c3-1.5 1.8.6 1.6 2l-5.3 23.2q-1.5-1.3-2.7-3.2c-1 .9-2.4 1.5-3 2.6a82 82 0 0 1-15.1 19c-3.1 3.2-5.3 7.2-8 10.8q-.2.7-.8 1.2c-8 6.8-14.8 15.2-25 18.8-1 .3-2.5-1.2-3.7-2.2"/><path fill="#ebf7fc" d="M454.6 362.3q-1.3 20.5-3 41.5c-.3 4.4-.5 8.8-1.7 13.3q-5.1-27.5-10.1-55.7c2.8 3 7.6 5.3 4.7 11.2-.8 1.6-.3 4.4.6 6 .5.7 3.8.7 5-.1s1.5-3 1.9-4.6q1.1-5.7 2.6-11.6"/><path fill="#eff9fc" d="M441.8 703.6c-3.2 9.3-6.6 18.1-9.4 27.2-1.1 3.6 2.9 6.8 6.5 5.3q3.6-1.5 6.5-4.3c3.5-3.7 7.3-7.4 9.8-11.8 2.8-5 6.6-7.4 12.4-8q-6.7 7.5-14.1 15c-2.5 2.5-5.4 4.9-7.3 7.8-4.7 7.2-14 4.6-18-1.8-.6-1 .4-4 1.5-4.6 4.7-3 1.2-6.8 1-10-.1-1-3.3-1.6-5.5-2.6q7-6.3 14.6-12.4c.4-.4 1.4-.1 2 .2M849.6 319c-7.1 15.3-12.4 31.8-23.1 45.3l-1.5-.5 4-16.1 3.7-17.4q3 3.1 5.7 6.5c2.3-5.4 4.2-10.4 6.6-15.1.7-1.3 2.8-1.8 4.6-2.7M488 760l-23 35.4-2.5 4.6c-2.8-6.5 1.5-10.8 5-15.6q4.5-6.5 8.7-13.4l-1.3-1.4q-3.1 2.3-6.4 4.4c-4.3 2.4-8.5 5-12.9 7-3.2 1.4-6.8 2-10.7 2.9q17.2-10.5 35-21 2-1.4 3.9-3.6.2-.4.5-.4c1.7 0 4-2.7 3.7 1.2"/><path fill="#eaf8fc" d="M930.4 730.9q23.6 2 47.9 4.6a81 81 0 0 1-33.8-2.9c-4.3-1-5.4 1-5.3 4.2l29.8 11.4q.5.4 1 1.5-20.8-6.5-41.6-13.3c-5-1.5-10-2.4-15-4.2q8.4-1 17-1.3"/><path fill="#ebf7fc" d="M937.8 266.2a175 175 0 0 0-54.5 38.7q5-15 10.3-29.8 1.4 2.4 1.6 5.3c0 1.7-.9 3.4-1.2 5.2q-.2 1.7-.2 3.5c1-.1 2.2 0 3-.5 5.4-3.8 11.5-7 16-11.8 5.6-6 13.6-6 19.8-10.2 1.2-.8 3.2-.3 5.2-.4m-139 96.5q-.1-.9.4-2.7.3-3.9 0-7l-2.2-4.5c5.6-3.3 7.7-7.4 6.5-13.5-.2-.8-.5-2.3-.3-2.4 5.5-2.6 2.8-9 6-12.7.7-.8.4-2.5.8-3.7q1.1-3.4 2.4-6.7l1.3-4 1.4-3.8c.3-.7.9-1.5.8-2.2-.6-7.4 4.8-11.9 8.5-17.1.9-1.3 3.4-1.3 5.4-1.7-1.9 2.2-4.8 3.8-6 6.2-10 21-15.3 43.4-20.7 65.9q-.9 4-2.3 9-1.2.8-2 .9m96.1-37.9 38-36.1c3.5-3.5 6.3-7.6 9.7-11.6 2.1 5.4-2.5 7.8-5.4 10.9q-8.1 8.8-16.6 17.5c-.8.8-.9 2.2-1.7 3-2.1 2-4.3 4.1-7 5.4-2.4 1.2-4.6 1.8-2.5 5.7q3.9-2.1 7.9-4c1-.4 3.2-.1 3.5.6q1.8 3.4 2.6 7.5c-2-5.1-3.5-6.2-8.5-4.3-6.1 2.2-12 5-18.6 7.5a5 5 0 0 1-1.4-2.1"/><path fill="#edf8fc" d="M492.2 703.9a696 696 0 0 1 35.4-16.5q.6 1.8.6 3L486.5 726c3-3.6 5.7-8.1 9.6-11 6.5-4.8 13-9.4 18.2-15.4l-.8-1.8-6.5 1.5q-7 2.3-14.8 4.5"/><path fill="#eff9fc" d="M564 795c1.7-2.3 4-4.1 5-6.5 9.2-19.7 13.1-40.9 17.5-62.3q2.1 2.5 3.2 5.8c.4 1.2 0 3.7-.7 4-4.8 2.2-2.7 6-2.7 9.4 0 .7.6 1.8.5 1.9-6.7 3.6-1.8 11.7-6.3 16.5-1.2 1.2-.5 4.2-.6 6.1-2 5.2-3.6 10.3-6 15.2-1.7 3.5-4.2 6.7-6.6 9.9-.4.5-2 .2-3.2 0"/><path fill="#eaf8fc" d="M1174 546.3q-10.2 10.7-20.8 21.2l-1.6-1 12-29.6c.7 2.6 1 5.6 1.9 8.4.3.9 2.5 1.5 4 1.7 1.3.1 2.7-.5 4.5-.7"/><path fill="#eff9fc" d="M629.1 663.8q-2.8-15.7-5.1-31.8l1.8-.7 17.4 14.2c-3.8.4-8 .2-11.9.7-3.7.5-3.8 2.4-1.6 5.4a10 10 0 0 1 1.4 6c0 2-1 4-2 6.2M647 648l48.8 39.7 4.4 3.8c-5.6 1.6-8.3-3-11.9-6-2.1-1.7-3.9-3.9-6-5.6l-26-21.1c-1.4-1.1-3.3-1.7-4.5-2.9q-3.1-3.3-5.8-7.5 0-.6.3-.4zm136.6-292q-3.4 9.1-7.8 18.1a5 5 0 0 1-4 2.5l-71.5.6c-5 0-4.4-4.7-7.2-6.9 2.8 1 5.6 2.5 8.7 3.5 2.8 1 5.9 2 8.9 2.1q16.2.4 32.4 0c10-.2 20-.9 29.1-1.3 2.6-6.3 4.6-11.5 7-16.5.6-1.1 2.7-1.4 4.4-2M606.9 699.2q6.7 22.6 13.1 45.5c1.1 3.9 3.3 7.1 8.7 5.4-.9 4.1-3.9 2.6-6 1.5-2.2-1-6.2-.8-5-5.3.2-1-1-2.3-1.8-3.3-.5-.7-1.8-1.6-1.7-2 2-4.1-.9-5.9-4.2-7.2l1.6-4.1c.2-1.4.6-4 .1-4.3-6.4-2.7-3-9.6-6-14-1.7-2.6.5-7.9 1.2-12.2"/><path fill="#edf8fc" d="M411.9 300.2c-1.8 16-3 32-.9 48.2l1.9 12.2q-7-4-6-12.3c.5-3.4 1.2-6.9 1-10.3-.3-9.9-1.5-19.8-1.4-29.7 0-2.8 3.3-5.5 5.4-8.1"/><path fill="#ebf7fc" d="M549.8 278q-20.2-14.9-40.1-30.2c-1-.8-1.6-2.9-1.4-4.3q.9-9.8-5-18.2c3.6 1 7 6.2 6.7 9.8q-.2 4 .1 8 .4 2.3 2.2 4 5.4 4 11.2 7.9 8.9 6.1 17.5 12.8c3.3 2.7 6 6.5 8.8 10.1"/><path fill="#eff9fc" d="m833.4 326.7 1.4-33.5c.2-2.8-.4-5.6-.6-8.8q6.2.2 5.7 7.3-.6 10.1-.9 20.3c-.1 4 .8 8.3-3.8 11-.9.5-1 2.3-1.8 3.7"/><path fill="#ebf7fc" d="M370 441.3q28 24 56 49c-1.2.2-3 .5-3.8-.3a1461 1461 0 0 1-48.2-41.7c-1.8-1.7-2.7-4.4-4-7"/><path fill="#eaf8fc" d="M1109 710.4q13.8 4.2 27.7 8.9 3 1 5.9.9c2-.3 5-1 5.8-2.4.8-1.5.4-5-.9-6.3-4.8-5.2-10.2-9.9-15.5-15 2 .4 5 .5 6 2 3.9 5 10.7 7.5 12.2 14.5.3 1.2 1.6 2 2.4 3-4.5 6.7-8.6 8-16 5.8-4.9-1.6-10.2-2-15-4-4.4-1.7-8.4-4.6-12.6-7.4m-128.8 25.7c10.4 1.3 21 3.4 31.8 4.2 13.3 1.1 26.8 1.2 40.5 1.6-1.6 1-3.6 3-5.6 2.9q-14-1-28-2.3c-3.3-.3-6.5 0-9.7-.5-6.3-1-12.7-3.7-18.9-3.3-4 .2-7 0-10.1-2.6m153.6-97.2q-13.4 4.4-27.2 8.6l-.5-1.2q10-8.6 20.5-17.3.4.4.4.9c-.7 7.3-.7 7.3 6.8 9m-32.6-359.1q-2-8.2-3.2-16.8c-.2-1.2.7-2.9 1.6-3.7q17-16.3 3.2-35.7c5 1.1 8.6 6.9 7.6 11.8q-.4 1.3-.4 2.5c2.1 8.7-2.1 15.6-6.7 22.3q-1 1.6-1.1 3.7-.3 7.7-1 15.9"/><path fill="#eff9fc" d="M513.7 784.2c-.3 8-1.2 16-1.3 24.2 0 5.9 1 11.8 1.6 18.2-6 0-5.7-1-4.7-7a56 56 0 0 0-.5-20c-1.4-6.3-.8-11.8 4.9-15.4m366.3-535q-8.3 20.8-17.5 41.8-1-2.4-2-5.6 3.3-6.3 6.5-13.2c2.8-6.6 5.2-13.4 8.2-19.9.6-1.4 2.9-2.1 4.8-3"/><path fill="#f4fbfd" d="M1064.2 694.1q21.7 7.2 44 15.5-5.6.5-11.6.3c-1 0-2.5-.4-3-1.1-5-7-13-7-20.1-9-3.4-.9-6.3-3.5-9.3-5.7"/><path fill="#edf8fc" d="M1113.4 454.8q2.3-22.4 5.3-45.5c.9 6.8 2 14 2 21 0 3.3-2.6 6.4-3.6 9.7-.5 1.7-.7 4 0 5.4 2.6 5.6 2.2 7-3.7 9.4"/><path fill="#eaf8fc" d="M418 387q2.9 9.8 5.6 20.5l-24.5-25.1q3.9 1.4 7.8 3.6c1.5 1 2.5 2.7 3.8 3.9 3.7 3 5.6 2.4 7.4-2.8m510 375.1q23.4 7.3 46.8 15.2l10.8 3.3c-.7.5-2 1.3-2.8 1q-14-4.1-27.7-8.7-13-4.3-25.8-9-.7-.5-1.3-1.8"/><path fill="#eff9fc" d="M899.4 253.8c.3-6.2 1.2-12.6 1.2-19 0-2.6-2.4-5.2-3.6-7.9l-7.5 5.1c-1-4.7 2.5-7 6-6.4 3.5.7 8.1 3.4 9 6.2 1.5 4.5.8 9.9 0 14.7-.5 2.6-3.2 4.7-5.1 7.3"/><path fill="#eaf8fc" d="M1122.9 689.8q-14.8-6.4-29.6-13.3l24.3-4.6q-3.7 2-8 4l-4.4 2.1q9.2 5.9 17.7 11.8"/><path fill="#ebf7fc" d="M460 234.2a29 29 0 0 0 9.3 26.7c1.6 1.5.2 6.2 0 9.8-1.7-6.8-6.7-12.2-9.6-18.7-1.4-3-3.3-5.8-4.4-8.9-1.4-4 1-6.8 4.6-8.9"/><path fill="#eff9fc" d="M395.9 379c-9.6-6.7-19.1-13.9-29-20.6-2.5-1.8-6-2.3-9.5-3.4 4.4-2.9 8.9-.3 12.5 1.9q11.8 7 22.8 15.5c1.6 1.3 2.2 4 3.2 6.6"/><path fill="#eaf8fc" d="M1160.1 598.8q15.2-18.8 31.4-37.8c-.4 2-.6 4.7-2 6.5-4.2 5.8-8.4 11.7-13.3 16.9s-10.5 9.7-16.1 14.4"/><path fill="#ebf7fc" d="M502.9 224a24.8 24.8 0 0 0-42.4 10c-3.1-8.2 4-11.5 8.6-15.2a23 23 0 0 1 23.3-3.4c4.6 1.7 8.9 3.1 10.5 8.6"/><path fill="#eaf8fc" d="M1102.8 222.9a25.2 25.2 0 0 0-41.4 10c-.3-1.4-1.2-3.5-.5-4.6 6.9-10.9 17-16 29.6-14 4.8.7 10 2.8 12.3 8.6"/><path fill="#ebf7fc" d="M946.6 335a1441 1441 0 0 1-31.1 25.1c.7-6.3 6-8.6 10.6-11.7 2.7-1.7 6-3 7.7-5.5 3-4.8 7.3-6.8 12.8-7.9"/><path fill="#eff9fc" d="M861.9 291.1q-5.4 13.7-11.6 27.7c-.1-2.6-.4-5.6.4-8.2.9-2.8 2.7-5.4 4.6-9.1-2-5.6-.3-9 6.6-10.4"/><path fill="#eaf8fc" d="M1060.5 235.2q.5 4.7.2 9.7c-.2 1.4-1 3.1-2 4a715 715 0 0 1-20.1 15.3c4-4.4 8.1-9.4 13.1-13 3.4-2.5 6-4.3 5.4-8.9-.4-2.8-.5-5.8 3.4-7.1M813.1 769.9q2.1-8 4.8-16c.5-1.4 1.5-3.3 2.8-3.7q8-2.8 16.9-5.2c-.6 1-1.4 2.5-2.6 3-4.6 1.5-9.5 2.5-13.9 4.5-1.2.6-2 4.2-1.5 6 1.3 5.3-.7 9.6-6.5 11.4M1204.8 632c-9.7 0-19.4-.5-29.1-.6-4 0-8 1-12.3 1.5.5-1 1.3-2.6 2.2-2.7q16.5-1.5 33-2c2 0 4 2.3 6.2 3.9"/><path fill="#edf8fc" d="m461.7 746-20.5 18.3c-3.7 3.3-7 7-10.9 10.6 0-1 0-2.4.6-3.1q7.1-7.1 14.5-14c1.2-1.2 2.8-2 3.6-3.4 2.7-5 7.4-6.8 12.7-8.3"/><path fill="#eaf8fc" d="m1109.9 336.1-6-33.4-.9-7.3c3.2 5.2 7 10.4 5.2 17.7-.8 3.3-1.3 7.3 2.2 10.5 1.1 1 .4 4.1.3 6.3q-.2 2.8-.8 6.2"/><path fill="#eff9fc" d="M515 828.3c3.8 1.4 6.7 0 8.2-3.3 3.6-7.6 6.7-15.4 10.3-23.3.3 3.6 1.7 8.1 0 11.1-2.4 4.8-5.7 9.2-8 14.3-1.7 3.6-7.6 3.9-10.4 1.2"/><path fill="#eaf8fc" d="M1055.4 738.8q-1.3-3-1.8-5.7h42c-1 1-2.5 2.8-4 2.8-8.8-.3-17.7-1.3-26.6-1.2-3.2 0-6.3 2.5-9.6 4"/><path fill="#edf8fc" d="M1149.9 520.2a735 735 0 0 1-17.4 27.8c-3-4 1-6.3 2.6-9 3.2-5.7 4-12.9 10.2-16.8q2-1.1 4.6-2"/><path fill="#eff9fc" d="M462 555.2a26 26 0 0 0 6 25.4c-3.8.7-5.5-.6-7.4-4.7-2.7-5.9-.6-11.8-2.5-17.5-.8-2.4.8-3.7 3.9-3.2"/><path fill="#edf8fc" d="M1104.1 508q1.8-13.7 4.6-27.7c2.8 1.2 5 3.6 2.2 6-4.2 3.5-3.2 7.6-2.3 11.7 1 4.4 0 7.7-4.5 10M412.8 363.1q2.9 10.4 5.1 21.5c-7.4-1.9-8.6-5.2-4.7-12 .5-.8 0-3-.8-3.5-4-2.1-2.2-4 .4-6"/><path fill="#eaf8fc" d="M850.2 744.2c13.1-1.6 26 .8 38.8 5.3l-21.6-2.8q-8.4-1.1-17.2-2.5"/><path fill="#ebf7fc" d="M1017 280.1q-13.4 11.2-27.8 22.4c.2-1.3.3-3 1.3-3.8q11-8.7 22.2-17 1.6-1 4.3-1.6"/><path fill="#eaf8fc" d="M1209.8 523.8c-3.1-1.6-6-.7-8.6 1.3l-22.9 17.8c.6-1.9 1-4.5 2.6-5.7q8.9-6.7 18.2-13.2c3.4-2.4 7-3.3 10.7-.2"/><path fill="#edf8fc" d="M485.8 726.1a712 712 0 0 1-23.4 20c.3-1.6.5-3.8 1.6-4.8q8.9-7.5 18.1-14.6c.8-.6 2.2-.4 3.7-.6"/><path fill="#eff9fc" d="m466.1 533 5.6 10.1-9.1 12c-1.3-3.6-1.5-6.8 2.2-9.7 2.3-1.7 3.1-4.4 1-7.4-.8-1-.6-2.8-.5-4.6q.6-.5.8-.4"/><path fill="#ebf7fc" d="M429 493.5q11.7 10.6 23.7 22.3-2.9-1.4-5.8-3.4a342 342 0 0 1-15.2-13.4c-1.3-1.2-1.8-3.4-2.7-5.5"/><path fill="#eaf8fc" d="M780 775.3c10.1 4.8 19.9 4.8 29.4-2.5-.6 1.6-1.1 4.4-2.5 4.9-6.9 2.4-14 4.2-21.4 2.2-2-.6-3.6-2.8-5.4-4.6"/><path fill="#edf8fc" d="M1164.4 536c1.4-7.5 3.4-14.9 5-22.4.4-1.8-.2-3.8-.5-6.1 4.3 1.6 1.4 5.3 2 8.2q.5 3 .4 6.1 0 2.6-.7 5c-.7 2-1.8 3.8-1.8 6.3q-2 1.5-4.4 2.8"/><path fill="#eaf8fc" d="M1195.1 556.8q6.8-12.7 14.5-25.7c1.8 4.8-1 8.1-3.8 11.8-2.6 3.3-4 7.4-6.4 11-.8 1.3-2.6 2-4.3 3"/><path fill="#ebf7fc" d="M460.5 323q-1.1 11.6-3.1 23.7c-3.7-8.2-1.9-16 3.1-23.6"/><path fill="#edf8fc" d="M1119.2 393.8q-2.4-11.7-4-24.4c3.7 4.4 7 9.2 5.3 15.9-.7 2.6-.7 5.5-1.3 8.5"/><path fill="#eaf8fc" d="M889.2 750q15.8 4.3 31.8 9.6c-7.4 2-13.5-3-20.4-4.7-4-.9-7.6-3-11.4-4.8"/><path fill="#eff9fc" d="M894.2 274.9q1.8-9 4.4-18.6 5.9 3.4 1.4 8.8c-.8 1-1.7 2.8-1.4 3.8 1.4 4-.6 5.4-4.4 6M534.3 801q2.2-9.2 5.2-19c.3 4.8.8 9.9.1 14.8-.2 1.6-3.2 2.8-5.3 4.2"/><path fill="#edf8fc" d="M1131.8 548.1q-3.2 7.8-7.5 15.7 0-5.5.7-11.2.7-5.4 6.8-4.5"/><path fill="#eaf8fc" d="M1143.3 666q14-5.1 29.3-10c-1.8 1.5-3.7 3.8-6.1 4.5-7.5 2.2-15.1 3.7-23.2 5.4"/><path fill="#eff9fc" d="M461.8 800.1q-3.1 9.4-7.4 19-1-1.9-1.7-4c-.1-.4-.6-1-.5-1.3l7.3-13.6c.2-.3 1.3-.1 2.3 0m7.2-88.3a599 599 0 0 1 22.5-8.1c-.5 1.3-1.2 3.3-2.3 3.7-6.4 2.2-12.4 6.1-20.2 4.4"/><path fill="#eaf8fc" d="M765 743.5c7.2 2.1 3 8.2 4 13-1.6.4-3 .3-5 .1z"/><path fill="#eff9fc" d="M888.8 232.1a229 229 0 0 1-8.2 17c-.7-2-2.4-4.5 1-6 .4-.2 0-1.9 0-2.8q-.7-7.4 7.2-8.2"/><path fill="#edf8fc" d="M1110.2 475a193 193 0 0 1 2.4-17.7c.8 4.5 1.7 9.4 1.8 14.3 0 1-2.5 2.2-4.2 3.4"/><path fill="#eaf8fc" d="M1139.8 618.3q9.3-9.8 19.6-19.4c-.1 1.3-.2 3.2-1.2 4.2a360 360 0 0 1-14.3 13.8q-1.6 1-4.1 1.4"/><path fill="#edf8fc" d="M1113.2 354.8q-2-8.2-3.4-17.3c4.7 2.2 6.4 6.5 4.9 11.3-.6 1.8-.8 3.8-1.5 6"/><path fill="#ebf7fc" d="M465.5 291q-.6 8.6-2.2 17.7c-1-4.3-2-8.9-2-13.5 0-1.3 2.5-2.7 4.2-4.2m518.3 15q-7.6 6.6-16.3 13.2c.8-2.1 1.3-5 3-6.3 4-2.7 8.6-4.6 13.3-6.8M655 360.8q-9-7-18.1-14.4c7.5 1.3 13 6 18 12.7z"/><path fill="#eff9fc" d="M387.9 431.8c-5.8-2-11.5-4.7-17.3-7-1.7-.7-3.8-.5-6.2-.8 1.2-.7 3.2-2.3 4.5-1.8 6.7 2 14 3.4 19 9.6"/><path fill="#ebf7fc" d="M437.2 342.8q-2.3-8.7-4-18.4c5 5 7.7 10.9 4 18.4m-6-32q-3-8.1-5.4-17.2c1.2 0 3.6.4 3.7 1 .3 5.4 5 10.2 1.7 16.2m168.7 6q-9-6-18-13.3c7.2 2.4 14.6 5 18 13.3"/><path fill="#eaf8fc" d="M1159.8 632.9q-11.2 3.2-23.4 6c0-1 .1-2.4.7-2.5q10-2.4 20.1-4.3 1-.1 2.6.8m-121.9-368.7q-7.3 6.1-15.6 12.4c1.8-7.8 8.3-10.4 15.6-12.4M988 781.5q11.6 1.8 23.8 4.4c-.7.7-1.8 2.2-2.6 2q-10.5-2.8-21.1-6.4"/><path fill="#ebf7fc" d="M965.7 320q-8.6 7.5-18.4 15c1.2-2 2.3-4.4 4.2-5.8q6.7-4.8 14.2-9.1"/><path fill="#edf8fc" d="M466 532.6q0 .5-.7.4c-5.4-4-10-8.2-11.2-15q6.2 7 12 14.6"/><path fill="#eff9fc" d="M690 366.8c-6.6-3.7-13.4-6.2-21.6-3.8 1-4.4 4.7-3.2 7.6-2.9q6 .8 11.7 3c1 .3 1.5 2.1 2.2 3.7"/><path fill="#ebf7fc" d="M581.8 302.9q-8.2-5.7-16.8-12.5a24 24 0 0 1 16.8 12.5"/><path fill="#eaf8fc" d="M745.1 728.2q9 6.2 18 13.4-11.4-2.9-18-13.4"/><path fill="#ebf7fc" d="M468.5 273a154 154 0 0 1-2.1 16.1q-1.6-4.3-2.2-9.2c-.3-3-1-6.6 4.3-6.9"/><path fill="#eaf8fc" d="M989.8 758.9q-9.4-3.7-19.1-8.4a23 23 0 0 1 19.1 8.4m129.2-87q11-3 23.5-6c-1.8 1.1-4 2.8-6.3 3.4-5.5 1.2-11.1 1.8-17.2 2.6"/><path fill="#ebf7fc" d="M616.8 330a269 269 0 0 1-15.7-11.6c7 .8 11.8 5.4 15.7 11.5m-53-41q-6.9-4.7-13.9-10.4c6.5.5 10.9 4.3 14 10.4"/><path fill="#eaf8fc" d="M701 692.6q7 5 14 10.9c-6.7-.5-10.8-5-14-10.9m427.3-64.6q4.8-4.7 10.5-9.5 1.2 7.6-10.5 9.5"/><path fill="#ebf7fc" d="M361.9 426.2c-.6 6 5 8.6 7.2 13.3-5.8-.7-10.4-8.9-7.2-13.3"/><path fill="#eff9fc" d="M427 788.6q8-2.6 16.6-4.7c-3.1 5.5-10.2 7.6-16.5 4.7"/><path fill="#eaf8fc" d="M715.2 704.1q6.8 4.8 13.8 10.5c-6.8 0-10-5.5-13.8-10.5"/><path fill="#ebf7fc" d="M421.8 287.9c-5.6-.5-7 3.5-8.4 7.9q-1.9-.7-3.6-1.9c2.4-2.4 4.3-5 6.8-6.6 1.1-.8 3.4 0 5.2.6"/><path fill="#eaf8fc" d="M1103.2 292.8q-1.4-4.7-2.1-10.4c5.9 2.3 6.6 5.3 2.1 10.4"/><path fill="#edf8fc" d="M1115.1 366q-1.3-4-2-8.6c1.7.5 3.8 1 4.9 2.5 2 2.8-.7 4.3-2.9 6M1101.5 523q0-4.1 1-8.8c1.3.8 3.1 1.7 3.4 2.9.5 3-.4 5.5-4.4 5.9"/><path fill="#eff9fc" d="M796.8 347.8q-3.3.8-7 1.4l-.5.4-1.3 1.4h-.3q-.8 1-1 1.9l-2.4 3c-.2-8.4 5.5-12.3 12.5-8"/><path fill="#eaf8fc" d="M635 344.5q-6.4-4.5-13.2-10a16 16 0 0 1 13.2 10"/><path fill="#ebf7fc" d="M456.4 350a58 58 0 0 1-1.2 9.7c-4.6-5.3-4.3-8.2 1.2-9.7m-17.1 5q-1.5-4.4-2.2-9.6 1.3.6 2.6 1.6c4 2.6 4 4.8-.4 8"/><path fill="#eaf8fc" d="M1007 768.8q-7.4-3.7-15.2-8.4c6.6-.8 10.8 3.7 15.1 8.4M1188.3 650q6.4-4.1 14.2-8.2c-1.1 4.4-7 7.9-14.2 8.1"/><path fill="#ebf7fc" d="M462.5 311.2q-.1 4.4-1.1 9.5-7.6-4.3 1.1-9.5M943.3 277q.6-4.5 1.6-9.5 2.4.7 5 2l-3 4.3a18 18 0 0 1-3.6 3.1m-510 45a52 52 0 0 1-2.2-8.5q8.5 1.5 2.2 8.5"/><path fill="#eaf8fc" d="M1019.2 779.8q-4.6-3.8-9.1-8.3c4.4-1.2 9.7 3.4 9 8.3"/><path fill="#eff9fc" d="M453.6 820q.8 3.7 1.2 7.7-2.8-1.3-5.7-3.1 2-2.2 4.5-4.6"/><path fill="#eaf8fc" d="M1173.4 656q6.4-3 14.2-6.1c-3.3 4.6-8.2 6.2-14.2 6m-438.2 64.2q4.8 3.2 9.8 7.4c-4.3-.6-8.8-1.4-9.8-7.4"/><path fill="#edf8fc" d="M1158.7 510q-3.5 5-8.2 10c-.2-3.8 4.2-9.4 8.2-10"/><path fill="#eff9fc" d="m655.2 361-.2-1.5q3.5 1.5 6.7 4.3l-.8 1.5z"/><path fill="#edf8fc" d="M428.7 776q-2 3.7-5.2 7.4c-1.1-4.1 0-7 5.2-7.4"/><path fill="#eaf8fc" d="M1210.2 531q-.4-2.9-.3-6.4c1 .5 2.8 1.4 2.9 2.4 0 1.3-1.4 2.6-2.6 4M772 767.1q2.5 2.1 5 5.3c-4 1.3-4.8.5-5-5.3"/><path fill="#edf8fc" d="M1168.9 506.8q-2.9.4-6.4.3c.6-1 1.5-2.9 2.4-2.9 1.3 0 2.6 1.4 4 2.6"/><path fill="#eff9fc" d="M419.1 717.1q2.4-.9 5.3-1.3c-1.6 4.3-3 4.7-5.3 1.3"/><path fill="#eaf8fc" d="M840.2 745.2q3.3-1 7.4-1.3-3.2.9-7.4 1.3"/><path fill="#ebf7fc" d="M943.8 265.9q-2.3.5-5.1.4c.9-3.7 2.9-3 5.1-.4"/><path fill="#edf8fc" d="M1119.3 406.7q-.4-4.5-.3-10.2.5 4.5.3 10.2"/><path fill="#eaf8fc" d="M1206.3 638.9q-.5-2.3-.6-5.3 4.6 1.5.6 5.3"/><path fill="#ebf7fc" d="M988.2 302.6q-1.5 1.9-3.8 3.5 1.5-1.8 3.8-3.5"/><path fill="#eaf8fc" d="M1192.2 560.9q.6-2 2.3-4-.7 1.9-2.3 4"/><path fill="#ebf7fc" d="M620 332.5q-1.5-.5-3.1-2 1.5.5 3.1 2"/><path fill="#eaf8fc" d="M768.8 759.2q.8.9 1.2 2.5-.8-1-1.2-2.5"/><path fill="#eff9fc" d="M354 356.2q0 1.4-1 3.5.2-1.6 1-3.5"/><path fill="#eaf8fc" d="M732 717.5q1.5.5 3.1 2-1.5-.5-3.1-2"/><path fill="#ebf7fc" d="M661 365.6q0-.9.7-1.4 1.4-.3 3-.1-1.4.9-3.6 1.5"/><path fill="#eaf8fc" d="M1126 691.7q-1.5 0-3-1.3 1.3.3 3 1.3m3 2q-1.4-.2-3-1.4 1.4.3 3 1.4m2.9 2.1q-1.4-.3-2.9-1.4 1.4.2 2.9 1.4m44.7-151.8a7 7 0 0 1-2 2.3 7 7 0 0 1 2-2.3M922 760.4q.9-.4 2 .1-1 .3-2-.1"/><path fill="#ebf7fc" d="M439.9 360.2q-.6-.9-.8-2.8.5.8.8 2.8"/><path fill="#eaf8fc" d="M1018 783.7q-.2-.6.6-1.8.1.6-.7 1.8m-91.7-22.3q.6-.2 1.7.3-.6.1-1.7-.3"/><path fill="#edf8fc" d="M1103.4 510.7q-.2-.6.1-2 .3.6 0 2m5.9-33q-.3-.5.2-2 .3.6-.2 2"/><path fill="#ebf7fc" d="M412.6 298.2q.3.6-.2 1.8-.1-.6.2-1.8M832.8 282q-.7 0-1.8-.7.6 0 1.8.7M469.1 582.2q.6 0 1.6.6-.6 0-1.6-.6"/><path fill="#eff9fc" d="M667 363.1q-.3.5-1.6 1 .3-.5 1.6-1"/><path fill="#eaf8fc" d="M730.2 716q.6 0 1.6.8-.6 0-1.6-.9"/><path fill="#eff9fc" d="M455.1 828.3q.3-.1 1 .4-.4.1-1-.4"/><path fill="#eaf8fc" d="M1054.2 740.8q-.2-.3.4-1 .2.4-.4 1m-242.2 30q0-.3.6-1 .1.4-.5 1m195.8-1.1q-.3.1-1-.4.4-.2 1 .4M811 771.8q0-.3.6-1 .2.4-.5 1m-1.1 1q0-.4.6-1 0 .4-.6 1m-31 1.6q.4-.2 1 .3-.4.3-1-.3m-7.9-9.4q.4 0 .7.7-.4.2-.7-.6"/><path fill="#edf8fc" d="M429.8 775.1q0 .3-.5.9-.1-.3.5-.9"/><path fill="#eaf8fc" d="M1053.1 741.8q0-.3.6-.8 0 .3-.6.8"/><path fill="#eff9fc" d="M418.2 716.4q.2-.1.9.2-.3.4-1-.2"/><path fill="#eaf8fc" d="M770.1 763q.4 0 .7.7-.3 0-.7-.8m220.8-3.2q-.4.2-1-.3.3-.1 1 .3"/><path fill="#eff9fc" d="M514.1 827.2q.3 0 .9.5-.3 0-.9-.5"/><path fill="#ebf7fc" d="M362.6 425.2q.3.2-.2 1-.4-.4.2-1"/><path fill="#eff9fc" d="M356 355.1q0 .5-.7.6-.2-.4.6-.6m335 12.7q-.4.2-1-.5.3 0 1 .5m1 1q-.3 0-.9-.5.3-.2.9.5m1 1q-.3 0-.8-.6.3-.2.8.6"/><path fill="#eaf8fc" d="M398.8 381.8q-.3.2-1-.5.4 0 1 .5"/><path fill="#ebf7fc" d="M369.2 440q.3 0 .9.7-.5 0-.9-.7"/><path fill="#edf8fc" d="M1162 507.2q0 .3-.6 1-.2-.4.6-1m-1 1q0 .3-.6.9-.2-.3.5-1m-.9 1.1q0 .3-.7.9 0-.3.6-1"/><path fill="#ebf7fc" d="M453 516.4q.4-.2.7.4-.4.2-.7-.4"/><path fill="#eaf8fc" d="M1177.7 543q.2.4-.5.9-.2-.4.5-.8"/><path fill="#ebf7fc" d="M944.8 267q-.3 0-1-.6.4 0 1 .5m-522 21.9q-.3.2-1-.4.4-.1 1 .4m1.1 1q-.3.2-.9-.5.3 0 .9.5m140.9.1q-.3.1-1-.5.4-.1 1 .5m-140 1.1q-.3.2-.8-.7.3 0 .8.8m1 1.9q-.3 0-.7-.7.4 0 .7.7m175 24.8q-.3.2-1-.4.4-.2 1 .4m366.2 1.4q0 .4-.7.9 0-.5.7-.9m-44.7 6.7q-.2-.3.4-1 .1.3-.4 1"/><path fill="#eff9fc" d="M645 647.3q.1-.3.7-.2.3 0 .2.2l.2.6-.2.2q-.4-.1-.8-.8m-1-.9q.4-.3.7.4-.3.3-.7-.4"/><path fill="#eaf8fc" d="M1127.1 628.9q0-.3.6-.9 0 .3-.6.9m78.1 11q0-.3.5-.9.1.3-.5.9m-1 1q-.1-.3.5-.8 0 .3-.5.8m-1.2.9q0-.3.7-.8 0 .3-.7.8"/><path fill="#13e1f9" d="M1141.9 714.1c-11.5-.2-21.5-5.3-31.8-9.5a290 290 0 0 0-57.1-19 7 7 0 0 0-3.4.2q-20.9 6.8-41.6 13.8-7 2-14.1 4.6c33.3 2.7 66 7.4 96.4 22.3l-.3 2.1q-18.8-.7-38.5-1.9-1-.5-1.4-.4l-2.1-.3c-14.6-3.7-28.2-7.8-42.2-10.7-14.6-3-29-9-44.4-4.3-6 1.8-12.3 2.6-18.5 3.8q17.4 2.2 34.6 3.1c7.1.5 14.3.7 21.4 1.6q25.8 3.5 49 15.8c-.8.5-1.7 1.6-2.5 1.6-9.8-.4-19.6-.2-29.3-1.5-17.3-2.2-34.4-6.6-51.7-8-27.8-2.1-55.7-5-83.5.3-6.5 1.3-13.1 1.7-20.3 2.6 54.3 4.6 104.9 18.1 150.1 48.1l-.6 2.2c-8.6-2.1-17.4-3.8-25.9-6.4-22-7-43.9-14.5-65.9-21.5-16-5-32-10.4-48.3-14.2a71 71 0 0 0-47.8 5q-2.6 1-5.8 2.6l-1.8-3.5c-.7-1.2-1.5-2.2-3-4.2 52-23.6 98.2-56 142.9-90.7-16.9 32.3-44 53.2-76.7 69-8 .7-14.8 2.5-20.5 7.6l20.8-5.9c14.9-2.5 29.9-4.7 44.6-7.8 4.4-1 9-4 12.2-7.2 18.6-19.5 36.7-39.5 55.3-59a127 127 0 0 1 21.4-17c-12 31.9-34.1 55.5-60.6 76.4q-.2.3 0 .2c18.2-2.6 34.4-8 48.5-21.5 23.7-22.9 43.3-49 64.2-74.2l14.7-17 2.5-3.4q.2.1.3.6l-1.2 5.8c-4.1 9.7-7.4 19.4-12.2 28.2-9.1 17-21.7 31.5-35.1 45.6l-28.6 23.8.5 1.2 38.8-19.1c7.6-4.5 15-8.5 21.8-13.4 3.4-2.4 6.3-6.1 8.2-9.8a133 133 0 0 0 13.9-52.7q.5-.5.5-1.5v-5c-.1-3.7.6-6.3 4.2-7.9 1.1-.5 1.3-3 2-5l2.2-1.6c1.1 19.4 3.9 38.8-4.4 58 .9-.6 2-1 2.5-1.9 5.6-9.6 11.6-19 16.6-28.9 12.9-25.4 23-52.3 40.2-75.5q5.1-6.6 11.4-12.8l.7.1c-3 9.7-5.3 19.5-8.8 29q-11.9 32.6-31 61.6c-.8 1-1.2 2.3-2.2 4l-3.2 4.5 1.4 1 3.7-5.1.1-.2q.7-.5.8-.8c7.7-9 14.9-18.4 23-27q20-20.4 40.6-40.4c3.8-3.7 8.3-6.5 13-9.7l.6.2c-4.4 7.8-8.2 16-13.4 23.2a365 365 0 0 1-66 69.7q-23.7 19.5-47 39.8c39.7-16 79.6-30.7 123.2-29.9l.6 1.3q-4.8 3-9.8 5.8a293 293 0 0 1-68.5 22.8q-24.8 5.3-49.8 10.2-3 .5-6 1.9c30.6 1.6 56.4 13 77.4 35.7zm-26.8-95.6-.8 1.9 1 .6 2.5-3.2-.7-.7zm-1.6 4"/><path fill="#f9fcfd" d="M1075 587c-13 15.7-25.5 31.6-39 46.8a1449 1449 0 0 1-47.9 51.5c-4 4-10 6-15.4 8 7.7-8.8 16.1-17.1 23-26.6 8-11 14.6-23 21.5-34.6 2-3.4 3.8-7.9 0-11-3.8-3.3-7 .5-10.2 2.3-16 9.3-26.8 23.8-39 37a3168 3168 0 0 1-37.5 39.5c-6.5 6.8-15.4 7.6-24.1 8.8-.3 0-.8-.6-.3-.2 10.8-9.4 22.3-18.2 32.3-28.4 7.5-7.7 13.3-17 19.7-25.8 1.2-1.7 2.5-3.7 2.8-5.8s0-5-1.3-6.2c-1.3-1.1-4.6-1.3-6.2-.4a88 88 0 0 0-12 8.1 680 680 0 0 1-101.9 68.3L811.2 733l6.5-17.9 45.9-124.5.6-2c1.5-6 3-11.9 11.2-11.7 1.5 0 3-1.4 4.8-2.5q.6-.6 1.1-.5l1.6.2.1.3q2 1.1 4 1.7v.3q1.1.6 2 .7v.2q1.1.6 2 .8v.3l53.5 27.6c1.5.8 3.2 3 3.3 4.6.7 13.4 10 23.5 23.1 24.3a24 24 0 0 0 24.8-21.8c.4-3 1.8-3.9 4-4.8 18.6-7.4 37.2-14.6 55.5-22.5 7-3 13.2-5.5 19.8.4zm23-204.8c3 14.9-1.6 28.8-4.6 43s-5.2 28.5-7.6 41.7c-3-14.8-6-30.6-9.7-46.2-1.8-7.8-4.8-15.2-7.3-22.8-1-3-2.8-5.6-6.5-4.9-3.5.7-4 3.5-4.4 6.4-4.2 26.9-1.3 53.5 2.7 80 2.6 17.8 6 35.4 9.3 54-5.8-7.5-11-14.4-16.4-21.1q-20.5-25.6-41.3-50.8c-2-2.4-2.7-4.4-1.4-7.5a22 22 0 0 0-2.4-20.6c-1.6-2.6-1.6-4.6-.3-7.3q21.4-45.3 42.6-90.8l26.7-58.2 2.6-5 1 6 8.6 51.9c0 .2.3.4.1.6l.2 2.8.4 2.9v1l2 11 .4 1.7.8 4.8v.6l.8 5 .4 1.6 1 4.6q-.2 0-.2.8l1.8 11.9z"/><path fill="#fafcfd" d="M861.6 524.8a13 13 0 0 1-17.5 9.2l-20.3-8.4-78.2-32.6c-1.4-.6-3.1-2.4-3-3.6 0-1.7 1-3.7 2.4-5a18 18 0 0 1 5.6-3.2l61.6-25.7c23.9-10 47.7-20 66.2-39q.9-.7 2.3-1l.6 1.2q-.3 4-1 7.4-.2.5-.2 1.3l-2.4 13.9q-.9 2.8-1.2 5.2L863 516.4z"/><path fill="#fafdfd" d="M1045.2 302.2q-27 58-53.4 115.3c-1.5 3.3-3.4 5-7 5.2q-1.5-.1-2.8.7c-6.1 4.1-10.9 1-16-2.4q-22.6-14.6-45.4-28.7-.2-4.7.1-8.7c.3-1.9.9-4.3 2.2-5.3l95.2-74.4 31.8-25c1.8-1.5 4-2.3 6-3.5l1.5 1.3z"/><path fill="#f9fcfd" d="M845.6 568.6c4.3 2.3 4.2 5.2 2.7 9.2l-50.2 136-3.5 10-39.1-135.2z"/><path fill="#11def8" d="m908.1 411 14.9 43.8 11.3 34 33.2-29.9 5 5.4q-10.5 9.9-21 19.3-6.5 5.8-12.8 11.8c-.8.8-1 2.7-.6 3.8q6.3 18.7 12.8 37.3l16 46.7c.5 1.6-.3 3.6-.4 5.4l.1 3.2h1.8l.7-6.2 7-63.9 5-50.5q0-1.1 2-2.2 3.4-.1 5.9.5l.1 6.9-.9 7-6.3 65.4c-1.1 11.8-2 23.8-3.8 35.6-.8 5.2-1.6 9.2 4.7 11.2 1.6.5 2.7 2.3 4.1 3.9 1.1 2.4 2 4.4 3 7l.1 3.9c.1 10.7-6.3 18.3-16.5 19.5-8.7 1-18.4-6.2-20-15.6-.7-3.6.3-7.5.8-11.4l4.1-6q4.8-2 2.7-6.5-2.9-7.4-5.4-15l-17-48.5-8.7-25-37.9 34.8c-6.8 6.3-5.4 5.3-11-.7q20.6-18.8 41.5-37.3c3.3-3 4.4-5.4 3-9.7q-5.9-17-11.2-34.2-7-21.7-13.3-43.9z"/><path fill="#10e4f9" d="m1092.9 461.7.2-.7q.6-3 .8-5.3l.2-.7q.8-5.3 1-10 0-.6.8-2 1.4-5 2-9.4s-.2-.3.2-.6q1.9-8.8 3-17-.1-.5.5-1.8 1.4-4.1 2.2-7.6l.3-1.6c1-2.2 2-4 1.8-5.6q-1-11.5-2.7-22.8c-.2-1.6-1.2-3-2-5l.2-2q.7-1.8.6-3.1l-7-43.4q-.5-1-1.7-2.5a8 8 0 0 1 0-3 564 564 0 0 0-3.5-23V293q-.4-5.2-.4-9.9 2.5-.1 4.8.4l2.8 15.9 3.3 15.6q.3.6.4 2.1 1.5 16 3.8 30.8l6.5 39 1.9 17.2q.1.5-.4 1.8-1.2 3-1.5 5.5l-1.7 16.3-3.2 31q0 1.7.7 3.3.1.6-.4 1.9-2.1 10.4-3.5 20.2 0 .6-.8 2-1.5 2.7-1.8 4.7-.8 6.6-1.4 13.3a11 11 0 0 1-1 3q-1.4 2-1.8 3.5-2.5 15.7-5.5 31.5h-13.7q-3-15-5.8-30.1-3.4-21-6.5-42.3c-2.8-19.4-5.2-38.8-1.9-58.4q.6-4.4.5-8.7l1.5-.3c2.8 8.5 5.9 17 8 25.6q7 27.9 8.5 56.6c.8 12.9 2.6 25.7 3.9 39.3q.3 1.3.6 1.4l.2-1.2.4-.2a448 448 0 0 0 3.6-26.5c.3-3.3-.5-6.8-.8-10.2q-.1-.5.5-1.8a519 519 0 0 0 3.3-23.5"/><path fill="#0d7bad" d="m900.8 411.1 13.6 43.7q5.3 17.3 11.1 34.2c1.5 4.3.4 6.8-2.9 9.7Q901.7 517 881.1 536c5.6 6 4.2 7 11 .7q18.6-17.2 37.9-34.7l8.8 25 17 48.4q2.3 7.6 5.3 15c1.3 3.1.6 5-3 6.5-1.9.1-3 .1-4.2-.2q-1-1.2-2-1.9l-62.3-32.3-5 7q7.3 3.9 13.2 7.6l-7 1v-.3q-1-.5-2-.7v-.3q-1.1-.5-2-.7v-.3q-2-1-4-1.7l.1-.3-.8-1.4-1.1 1.4-.6.2q-4.4-.4-8.9-1.2c4.5-2.5 10-3.4 12-9.6l.6-2.2.3-.2q.6-5 .7-9.8v-.4q-.5-2.2-1-3.6v-.4l-2.2-4-3-3q-1.5-1-3-1.7-.4 0-.8-.3-5.2-1.5-10-2.5l-2.2-5.4-1-4.7q.1-4 1.5-8.7 1.4-2.6 1.8-4.4c.6-2 1.6-3.3 3.9-1.4l-2.8 20q3.5 1 7 1.7l.8-2.7 15.8-86c2.2-12.5 4-25 6.5-37.6q1.5-.2 2.9 0zm1.3 123.5-4.5 4c-5 3.8-8.9 7.7-6.5 15.2.8 2.7 1.2 4.5 4 6l50.3 26.2 10.6 5.4-28.7-80.2zm1-97.2-4-11.9-.8.3-19 104.1 4-3q16.8-15.6 33.8-30.6c3.5-3.1 3.7-5.8 2.3-9.8l-16.3-49"/><path fill="#f8fcfd" d="m749.9 514.1 46.2 19.7 30.4 12.6q3.8 1.4 7.5 5.5l-83.6 18.7L733 512q-.1-1.3.4-1.9l2-1.2h1.9l1.4.4.3.2q3 1.5 6 2.4l.1.3q2.6 1.1 4.8 1.8"/><path fill="#16d7f8" d="m743 565 3.3 11.3c31.6-5.8 63.3-14.7 96-20.6l2 7.6-95 21.7c1.3 6.2 2.5 11.7 3.3 17.6a94 94 0 0 0-2.6 9.8 14 14 0 0 1-.4 3.6l-6.7-21.7c-2-6.8-2.4-7.1-9.4-5.6l-52.3 11.8q-21.6 4.9-43.2 9c-.6-2.7-1.3-5-1.7-7.7q48.9-11.6 97.6-22.5c3.7-.8 4.2-2.3 3.3-5.4q0-.5-.3-1.2V571q-.5-1.2-1.3-2.2-.5-1-.2-2-.1-3.5-.8-6.5-1.8-6.2 4.5-7.4v.4q.4 1.6 1 2.7v.3l.9 1.7v1q.6 2 1.1 3v.9q.4 1.4 1 2.1"/><path fill="#f7fbfd" d="m934.3 422.7 26.2 16.3c2.3 1.4 4 2.9 2.9 6v.4c3.4 8.7-3 12.9-8.2 17.6l-18.4 16.9-23-69.5.9-.8z"/><path fill="#0f6caa" d="M880.5 415.3q-1.2.5-2.1 1.3c-18.5 19-42.3 29-66.2 38.9l-61.6 25.7a18 18 0 0 0-5.6 3.2 8 8 0 0 0-2.5 5c0 1.2 1.7 3 3 3.6l78.3 32.6 19.9 8.4q0 1.7-1 3.6-14.5-5-28.1-10.6l-51-21.1-22.8-9.2c-1.7-.8-3.2-1.2-4.6-2.1q-.2-6 0-11.7l3.2-1.9 55-24.1q15.3-6.5 31.1-12.9a131 131 0 0 0 46.8-30q3.9-2.2 8-4 4.2.4 7.7 1.3 0 1-.4 2t-.5 2.2q.1 1-.5 1.5-3.3 3.4-6.1 7l1-7.5q-.4-1-1-1.2"/><path fill="#17daf5" d="m1057 267-67.9 52.4c-6.2 4.8-13 8.8-19 13.6-9.6 7.7-18.7 15.9-28.3 23.6-7.8 6.3-16 12.3-24.5 18.8l-5-6L928 357q30-23.6 60.2-47 37.4-28.8 75.5-57.4l3.6 5.8zm15 11q-9 17.5-17.4 35.2c-6 12.8-11.6 25.8-17.6 38.6-1.9 4-4.7 7.6-7 11.5q-1.2 1.6-1.8 3.5c-4.8 19.4-15.4 36.3-23.7 54.3-2.8 6.2-3 6.2-9.7 1.9l7-15.8 49.2-104.9 9-18.4 4.2-9.6q5-9 10-17.2c2.4.7 4.5 1.9 6.4 1.8 4.2-.3 8.3-1.2 12.5-1.8q-.4 2.5-1.2 5.4c-3.2-3.7-3.8 2.3-6 1-.9-1.4-1.9-3.3-2.7-3.2-1.5 0-3.6 1-4.2 2.3q-3.8 7.6-7 15.4"/><path fill="#f4fbfd" d="m970.6 524.6-4 38.8q-1.2-2-1.6-3.1L944.5 502c-1-3-.8-4.7 1.6-6.9q13.8-12.2 27.4-24.7c.5-.5 1.2-1 3-2.2z"/><path fill="#17daf5" d="M789.1 726c.6 2 1 3.9 2 5.6.6 1.3 1.8 3 2.9 3 1 .1 2.9-1.3 3.3-2.4l26-71.7c6.6-17.8 13.7-35.3 20.3-53q4.9-13.9 9.2-27.9l1.7-4.9 7.6 2.9-7.7 22.5-29.7 80.4c-5 13.6-10.5 27-15.6 40.5q-2.8 7.5-5 15c-.2.7.4 1.6.4 2.6-6.5-4.3-13.4-2.9-20.3-2q-1.2-5-1.9-9.8z"/><path fill="#10e4f9" d="M784.2 737c6.9-1.3 13.8-2.7 20.4 2q.5 0 .5.2l1 .8c1 1 2 2 3 3.7q.5 1.6 1 2.2v.3l1 .8c4.4 11.5-3 22.2-9.9 24.9-10.5 4-21.8-.3-25.1-11.2-1.5-4.8.4-10.6 1-16.4q1.6-2.7 3.2-4.5z"/><path fill="#0fe4fb" d="M983 465c-12.1-6-14.2-9.9-12.6-24.7l3.3-6.3c4.9-4.3 10.1-7.7 17-6.7 15.3 2.3 20.1 20.3 12.4 29.7l-2.2 2.9q-4.7 3-9.2 5.1l-2.1.2zm-103.9 75q1.3 1 2.8 3 1.2 2.4 2.2 4v.3q.4 2.1 1 3.7v.4l-1 9.7h-.3q-.5 1.4-.6 2.3c-1.7 6-7.2 7-12.1 9.3-3.9-.2-7.7-.1-11-1.3-12.1-4.2-16-16.9-8.4-28.4q1-.7 1.2-1.1h.3l.7-1h.3l.7-1h.3l.8-1h.3l1.7-1h17.4q.1-.1.5.4zm5.3-167.8 1.5-1c4.7-1 9.4-2.6 14-2.4 9 .6 12.7 7.4 14.9 15.1 1.9 7-1.5 14.5-8.7 19l-6.5 1.1-4 1q-2 0-3.7-.3-.4-.6-1.2-.7h-.7l-.1-.2-1.3-.7q-.4 0-.7-.4l-1-.7v-.2l-2-1q-.7-.3-.8-1.1c1.1-3.3 5.7-7-.9-8.5-4.2-1-4-3.6-4-6.5q.3-2.9.8-5.7l.2-.2.8-1.8.2-.1.9-1.4zM1093 257q-6 1.3-12.4 1.9c-2 0-4-1.1-6.3-1.8q-.4 0-.4-.3l-1-.8v-.2l-1-.8v-.2l-1-.8v-.2l-1-.8v-.2l-1-1.8v-.2l-1-.8v-17.1h.3q.6-1.2.7-2h.3l.8-1.9q0-.5 1.1-.9c4.4 1.1 6.6.3 5.7-4.3h.3q.8-.2.9-.8h13.1v.2q2.1 1.2 4 1.7v.3l1 .7v.3l1 .7v.3l1 .7v.3l1 .8v.2q.4.7.9.8v.3l1 1.7.1.9q.5 1.4 1 2c.3.6.6 1 .5 2.1q-.4 5-.5 9l-.3.2q-.6 1.6-.7 2.9h-.3l-.7 1h-.3l-.8 2h-.2l-.8 1h-.2l-.8 1h-.2l-.8 1h-.2l-.8 1h-.3z"/><path fill="#0d98e9" d="m741 497 22.6 8.9 51 21q13.7 5.6 28 11l3.7 2.6-3.5 7.4q-9.9-3.8-19.6-7.8l-51.4-21.3-16.6-7.1-17.6-7.5z"/><path fill="#19def9" d="m774 742.1-8.2-7.2c-1.7-1.5-3.2-4-5.1-4.5-8.8-2.7-14.9-9-21.7-14.5q-29.8-23.7-60-48.6-1.2-1-2-1.3v-.4c.3-4.2 3.5-4.2 6.1-4.8l.1.4 1.8.8.1.2 1 .8v.2q.6.6 1.4.8 2 1.5 3.6 3.1.6.6 1.3.9.6.2.8 1l1.8 1 .1.2 1 .8v.2l1 .8v.1l1 .9v.1l1 .8.1.3 1.8.8.1.2 1 .8v.2l1.4.9q27.5 21.7 54.5 43.4 10 8 19 16.6z"/><path fill="#0fe4fb" d="m1096.1 577.1-2.2 1.6q-.5.5-1 .4l-2.1 1h-14.9l-.1-.3-1.8-.8-.2-.2-1.8-.8-.1-.2-1-.8v-.3l.6-6c.8-3.3 1.1-6.3-2.3-8.8-1.3-.9-1.6-3.3-2.3-5l.3-.1q.5-1 .7-1.8l.2-.2q.7-.9 1-2.1l5-5.5 3.2-1c5.4.1 10 .5 14.7.8 2.7 2.7 5.3 5.4 8 8.9V572h-.2l-.8 2h-.2l-.8 1h-.2l-.8 1h-.2z"/><path fill="#15dbfa" d="M789.1 725.7q-3.1.7-7 .7-2.9-8-5.2-15.7l-19.1-65.2-8-29.2q0-1.6.5-4a9 9 0 0 1 3-2.3q1.6 1 2.8 2v.3l1 1.7q1 2.5 1.7 5.8 0 1 .3 1.2v.9q.4 1.4 1 2.1l1 4.7c.3 1.6.7 2.4 1 3.3q2.4 6.5 4.4 13.2 9.8 34.3 19.5 69.7l1.1 5v.4q.6 1.6 1.3 2.6z"/><path fill="#0282b4" d="M1048 734.8q-23.3-11.7-49.1-15.3c-7-1-14.3-1-21.4-1.6q-17.2-.9-34.6-3c6.2-1.3 12.5-2.1 18.5-4 15.5-4.6 29.8 1.5 44.4 4.4 14 2.9 27.6 7 41.8 10.7q.5 4.2.3 8.8"/><path fill="#19def9" d="m1004.3 462.1 3 1.3 2.6 2.7 16.4 20.6q11.8 14.6 23.5 30.2-2.7 3-5.8 4.8l-9.2-11-35.7-43.6z"/><path fill="#1ad5f9" d="M683.2 660.7c-2.7.7-5.9.7-6.2 5l-30.6-23.8c-5.3-4.5-10.3-8.8-15.3-13.8a23 23 0 0 1 4.2-5.3q6.8 4.5 12.8 9.2z"/><path fill="#19def9" d="m967 436.6-53.6-33 5.1-6.8 51 32.6q-.9 3.9-2.5 7.2"/><path fill="#047bb6" d="m740.8 496.7-3.2 7.5q8.7 3.6 17.3 7.4-2 1.4-4.6 2.5-.5.1-.5-.4-2.5-1-4.9-1.6v-.4q-3-1.4-6.1-2.3v-.3q-.9-.4-1.8-.3l-2 .2q-1.4.7-2 1.3l-.2 1.4a10 10 0 0 1-4 2.1q-4.5-.3-8.5-.2c.4 2.8.7 4.6.6 6.3q-2.8-1.8-5.3-4-.5-.3-.8-1c-1.7-1.7-3.3-3-5.6-5v4.3h-.2q-.7.4-1 .9h-.3q-3.3.4-5.9.4l3.1-4.6-5.4-4.7q-2.8 2.7-5.6 4.7-.1-2.5.4-4.7t1.6-4.6v-.8q1-5 1.6-9.3c.1-.8-1-1.7-1.6-3l.4-5.5q2.3-.1 5.3.4-.1 1.7-.5 2.7c-3.2 10.2 1.4 20.8 13.3 23.3 10.4 2.1 18.1-3 21.8-14.4z"/><path fill="#0d7bad" d="M1072.2 278.1q3-8 6.8-15.5c.6-1.3 2.7-2.2 4.2-2.3.8-.1 1.8 1.8 2.8 3.3q0 .4-.3.6 1.8 14.9 4.1 29.2v1.8l3.3 22.8.1 3q.7 5.7.6 10l-4.2-1.2q-4.4-25.8-8.6-51.7l-1-6-2.6 4.7q-2.5.9-5.2 1.3"/><path fill="#17cbf9" d="m721.3 520-1-6.4 8.2.2q4.8 16 9.1 31.6.9 3.2 1.5 7-6.3 1.8-4.5 8 .8 3 .6 6-5.3-16.7-10.2-33.8l-2.6-7z"/><path fill="#11def8" d="m1054 522 12.7 15.5q2 2.2 4.2 5.5a24 24 0 0 1-4.3 6q-9.2-11-17.6-22 2.9-2.6 5-5"/><path fill="#0282b4" d="M1093.2 579.1h.6c-.5 1.6-.7 4.1-1.8 4.6-3.6 1.6-4.3 4.2-4.5 7.9l-7.3 2.4 1.2-6.7-.5.5-2.4 3q-1.6-1.4-3.2-3.6c-.3-.4-.3-.5-.3-1.3q-4.3-4-8.6-7.2l3.8-1.7h.7l.2.3.9.8.1.2 1.8.8.2.2q1 .7 1.8.8l.3.3c5 2.2 9.6 2.7 14.2-.3h.7q1.4-.5 2.1-1M1074 257l-9.6 17q-3.5-3.2-7-6.8 4.5-4.4 10-8.8-1.8-2.9-3.4-6 .9-1.4 3-2.4h1v.3l1 .8v.2q.4 1.1 1 1.8v.2l1 .8v.2l1 .8v.2l1 .8v.2z"/><path fill="#17daf5" d="M1113 403.5c-.8-5.2-1.2-11-2-16.6-2-13-4.5-26-6.5-39q-2.3-15-3.9-30.6 3.5 17.3 6.3 34.9l6.3 41.7c.4 3-.1 6.1-.3 9.6"/><path fill="#0fe4fb" d="M1086 264c2.1.8 2.7-5.2 5.9-1.1q.4.2.2 1l1.9 19.1q-2 .1-4.6-.4a307 307 0 0 1-3.4-18.6"/><path fill="#17daf5" d="M1107 461.5q-.9-1.2-1-2.8l3.3-31.1 1.7-16.3q.3-2.5 1.4-5.2-1 17.4-3 34.9-1 10-2.5 20.5"/><path fill="#0282b4" d="M1004 462a52 52 0 0 1-4.9 5q2.3 2.6 4.3 5.9-2.2.9-4.3.7l-1.1-2-2-2-4-4.5 8.7-5c1.2.6 2 1.3 3.3 2"/><path fill="#17daf5" d="M1094.2 283.4q-1.2-9.6-2-19.2 2.3 10.7 4.2 22.3l3.9 28q-1.7-7.3-3.3-15.2z"/><path fill="#18c1f8" d="M1092 546.6q-6.9 0-14.5-.6-.6-1.4-.6-3.5 6.5-.6 13.8-.3l1.1.7z"/><path fill="#0282b4" d="M878 718q-10.3 3.5-20.7 6.3c5.7-5 12.5-7 20.2-7.4q.6.3.6 1.2"/><path fill="#17daf5" d="M1089 487.5c.4 3 1.2 6.4.9 9.7q-1.4 13.1-3.7 26.5a1358 1358 0 0 1 2.9-36.2m2.9 55q-.7.4-1-.3l5.1-31.7q.5-1.4 1.7-3.3-2.6 17.2-5.9 35.3"/><path fill="#18c1f8" d="M1053.9 521.7q-2 2.8-5.1 5-2.8-2.4-4.6-4.7l5.7-4.7q2 1.7 4 4.4"/><path fill="#17daf5" d="M1101.3 372c.7 1.5 1.7 3 2 4.6q1.6 11.3 2.6 22.8c.1 1.7-.9 3.4-1.7 5.4q-.9-10.1-1.3-21.8l-1.8-10.3z"/><path fill="#11d7f5" d="m900 404 5.8-.9q1.4 3.4 2.3 7.5-3.2.4-7 .3-1-2.2-1.7-5.2.2-1.2.6-1.7"/><path fill="#0d7bad" d="M1101 373q1 4.4 1.9 9.6c-1.1-.1-2.2-.8-3.3-1.2q-.7-.2-1.6.5-.5-.7-.5-3c1.1-2.5-1-6.2 3.5-5.9"/><path fill="#0282b4" d="m967 436.9 2.9-7.5q1.4 2 3.5 4.5-1 2.8-3 6-1.8-1.2-3.4-3"/><path fill="#d8f1fa" d="M930 730.7q-8 .5-16.9 1.3a94 94 0 0 1-11-1.5c10.2 0 18.8 0 27.9.2"/><path fill="#04abd5" d="M1067 549.1q2-2.6 4-5.8 1.5 1.3 2.9 3.6-2.1 2.9-5 5.8-.6.5-.8 0z"/><path fill="#17daf5" d="M1068 249.6q-.2.6-.8.4c-1.7-5.6-3-11.1.5-16.8q.4 7.6.3 16.4"/><path fill="#04abd5" d="M774.1 742.4q1-2.9 3.2-5.3 1.8 1.3 2.7 2.7l-2.8 4q-1.7-.3-3-1.4"/><path fill="#17daf5" d="M1092.6 462q-1 11-3 22.9 1-11.1 3-23"/><path fill="#0282b4" d="M983 465.4q3-.6 6.6.2 0 2-.7 3.4l-5.5-.1a9 9 0 0 1-.4-3.5"/><path fill="#04abd5" d="m752.9 610-2.6 1.8q.6-4.2 2.2-8.8 1 .9 1.5 3z"/><path fill="#13e1f9" d="M1100.4 571.9q-.5-7.4-.3-15.7 5.3 7.1.3 15.7"/><path fill="#17daf5" d="M1099 503.6q.4-6.1 1.3-13 .3-2 1.6-4.3-1 8.2-2.9 17.3m-224 34q-7.8.3-16.6.4 1.5-1 4.6-2.1l2-.8q5 1 10 2.5m201.5-313.8c1.2 4.6-1 5.4-5.2 4.2a32 32 0 0 1 5.2-4.2m14.3-1.2q-5.2.4-11.5.4c3.3-2.5 7.3-2.3 11.5-.4"/><path fill="#04abd5" d="M1122.6 611a32 32 0 0 1-3.2 5.2l-1.4-1q1.3-2 3-4.2z"/><path fill="#0d69a7" d="M893.3 363.4q4.2 0 9.3.5a71 71 0 0 1-9.3-.5"/><path fill="#17daf5" d="M1097.6 434a53 53 0 0 1-1.5 8.8 53 53 0 0 1 1.5-8.9"/><path fill="#16d7f8" d="M753.2 610q.1-1.6.8-3.7 1 2.1 2.1 5.3z"/><path fill="#17daf5" d="M1103.6 406.9q-.6 3.1-1.9 7 .5-3.3 1.9-7m-1.2-161.1a44 44 0 0 1 .2-8.5 44 44 0 0 1-.2 8.5"/><path fill="#0282b4" d="M1010.1 465.9q-1.4-.9-2.4-2.4 1.3.8 2.4 2.4"/><path fill="#17daf5" d="M1095 224.6q-1.8-.2-3.8-1.4 1.5.3 3.7 1.4m-307.7 495q-.7-1.5-1.2-4.3.6 1.5 1.2 4.3M1093.6 456q.2 2-.4 4.8-.2-2 .4-4.8"/><path fill="#16d7f8" d="M762.2 631.6q-.6-.7-1.1-2.5.6.7 1 2.5"/><path fill="#17daf5" d="M788.3 722.6a7 7 0 0 1-1.2-2.3 7 7 0 0 1 1.2 2.3"/><path fill="#0d69a7" d="M888.2 364.9q.7-.6 2.4-1.1-.6.6-2.4 1"/><path fill="#17cbf9" d="M740.1 555.6q-.6-.6-1-2.3.5.6 1 2.3m2 6.1a8 8 0 0 1-1-2.5 8 8 0 0 1 1 2.5"/><path fill="#17daf5" d="M1101.3 248.9a5 5 0 0 1 .5-2.7 5 5 0 0 1-.5 2.7m-2 3q0-.6.6-1.7 0 .6-.6 1.7"/><path fill="#13e1f9" d="m1162.8 515.9.6-1.4v1.5q-.3.1-.6-.1"/><path fill="#1ad5f9" d="M677.1 666.3q.7 0 1.7.8-.6 0-1.7-.8"/><path fill="#17daf5" d="M810.2 745.6q-.6-.3-1-1.6.4.3 1 1.6m291.9-511q-.5-.3-1-1.5.5.3 1 1.5m-32.3-5.4q0 .6-.6 1.6 0-.7.6-1.6"/><path fill="#0d7bad" d="M864.8 535q-.3.5-1.4.8.2-.4 1.4-.7"/><path fill="#17daf5" d="M1068.7 231.1q.1.6-.5 1.7-.2-.6.5-1.7m32.3.6q-.4-.2-1-1.4.4.3 1 1.4"/><path fill="#17cbf9" d="M741 557.7q-.4-.3-1-1.5.6.3 1 1.5m2 7q-.4-.3-.9-1.7.4.3 1 1.7"/><path fill="#16d7f8" d="M760 623.7q-.4-.4-.9-1.6.4.3 1 1.6"/><path fill="#13e1f9" d="M1099.3 573.8q-.2-.6.5-1.6.2.6-.5 1.6"/><path fill="#16d7f8" d="M757 613.7q-.4-.3-1-1.5.6.3 1 1.5"/><path fill="#17daf5" d="M1093.3 257q.3-.4 1.4-1-.2.6-1.4 1m-7.6 267v1.1l-.6-1q.2-.3.6-.2m-228 14.1-1.4 1q.2-.6 1.4-1M811 746.7q-.3.2-.8-.6.3 0 .8.6"/><path fill="#0282b4" d="M1050.2 726.5q.3-.4.9.2-.3.4-.9-.2"/><path fill="#17daf5" d="M806 739.7q-.3.1-.9-.5.3 0 .9.5"/><path fill="#13e1f9" d="m1142 714 .4.5-.4-.2zm59-181q0-.5.4-.7v.8q-.3.1-.5-.2"/><path fill="#17daf5" d="M855.7 539q0 .3-.6.8 0-.2.6-.8m-1 1q0 .3-.6.8 0-.3.6-.8m-1 1q0 .3-.6.8 0-.3.6-.8m-1 1q0 .3-.7.8 0-.3.7-.8m242.6-286q0-.3.5-.9 0 .3-.5.9m-17.6-33q.3.6-.6.8 0-.2.6-.7m18.3 2.6q-.3 0-.9-.5.3-.2 1 .5m.9 1q-.3 0-.8-.6.3 0 .8.6m1 1q-.3 0-.8-.6.3 0 .8.6m1 1q-.3 0-.8-.6zm.9 1.1q-.4.2-.8-.6.3 0 .8.6m.4 20.2q0-.3.5-.9.2.3-.5 1m-2 2.9q0-.3.5-.9 0 .3-.5.9m-1 1q0-.3.5-.9.1.3-.5.9m-1 1q0-.3.5-.9.1.3-.5.9"/><path fill="#0e75a7" d="M646.3 648q-.3-.2-.4-.7.4 0 1 .5c.1.2-.4.2-.6.2"/><path fill="#16d7f8" d="m759 620.8-.2-.7q.2 0 .3.7"/><path fill="#13e1f9" d="M1098.3 575q-.2-.3.5-.9 0 .3-.5.9m-1 1q0-.3.5-.9 0 .3-.5.9m-1 1q0-.3.5-.9.2.3-.5 1"/><path fill="#04abd5" d="M1123.8 610.1q.2.3-.5.8-.1-.2.5-.8"/><path fill="#0d92f5" d="m483 640.9-6 .2c-3.2-.4-4.5.3-5.6 2.8a422 422 0 0 1-11 23.3q-4 7.4-8.5 14.6-9.6 10.1-19.4 20-3.6 3.5-7.5 6.3l-1.2-.9 9.5-18.8a2868 2868 0 0 1 24.5-44c9.4-16.5 13.4-34.9 19.4-52.6 2.2-6.3 2.2-9.9-3.9-14.4-8.8-6.6-8.4-18-.8-26.4l5.1-4.9c-6.2-19.8-20.3-34.2-34.7-48.8l3.1-2.6q-1.6-1.5-3-2.1c-12.3-3.7-20.7-13-30.2-20.7-11.4-9-22.2-19-33-28.8a53 53 0 0 1-9.1-11.8c39 15.5 69.3 41.4 93.3 75.7l-2.5-9-3-8.9c-7.5-20-19.8-36.9-33.7-52.6-13.3-15-28-29-41.5-43.9-8.4-9-17.1-18-21.5-30.2 36 19 60.3 49.4 80.8 83.8q0-1.2-.3-2.4l-1.1-2.7c-4-11.6-8.8-23-11.8-35a995 995 0 0 1-12.3-54.7 132 132 0 0 1 0-46.1c.4-3 1.4-6 2-9l1.5-.1c1.4 4.6 3.3 9.1 4.2 13.8l13.2 71.4c2.3 13 4 26.2 7.1 39 2.4 10 6.5 19.6 9.8 29.3q2.2 7.3 5.6 14.3c-1-6.8-2.5-13.6-2.7-20.5q-.8-22-.4-43.9c.3-9.9 1.7-19.8 3-29.9q1 6.2 1.6 12.7.9 9 1.2 17.8l.1 47.4.5 28.7h1.8c1.6-39.8-.5-79.6-1.6-119.3q1.9-21.8 4.4-43.5c2.2-17.2 5-34.4 7.3-51.6.3-1.7-1.4-4.1-2.9-5.5-5.2-4.8-8.6-10.2-7.3-17.5 1.4-7.9 5.2-14.2 13.5-16.3 13.8-3.5 25.7 6.2 23.6 22.6-.4 3.3.4 4.8 2.6 6.5q37 28 73.7 56.3 23.3 18.2 46.4 36.7 16.9 13.2 34.1 26c1.1.8 3.8.5 5.2-.3a19.6 19.6 0 0 1 25.5 5.3c4.4 6.4 5.5 18.6-2.6 25.5a20 20 0 0 1-23.7 1.7c-6.2-3.9-9.4-13.4-7.3-21.2q1-4 .5-8.3c-4.9 3.2-7.7-.4-10.3-2.4l-91.2-70.8-51.1-39c-2.2-1.7-3.9-4-6.2-6.6-1.5.9-2.6 2-1.2 5l28.1 61.2 16 34.3 29.2 63.5q1 2.4 2 5.6l-6 3.2-7.9-15.6q-13.8-28.7-27.3-57.7-11.2-24.6-22-49.6-9.3-21-19-41.7c-.7-1.5-3.9-1.8-6.8-3L480 288c-2.9 23.8-6.4 47.6-8.6 71.5-.8 9 1 18.5 1.9 27.7.7 7.6 2.1 15 2.6 22.7q1.1 16.6 1 33.4c-.2 13.2-1.2 26.5-1.8 40.6l3 31.3h1L485 482c6.8-29.5 13.3-59.1 30.6-84.7l1.8.3c-.8 7.3-1 14.7-2.7 21.8-3.1 13.7-7.1 27.3-10.5 41q-9.6 38.7-19 77.6-.9 3.7-1.5 7.3c2.4.3 5 .3 7.3.9 7.3 1.6 12.8 9.6 13.3 19.8-1.4 3.7-2.1 7.3-4.3 9.3-3.2 2.9-7.5 4.5-11.2 6.8-1 .7-1.7 2-2.6 3 .8.7 1.6 1.8 2.4 1.8 3.5.2 3.7 2.4 3.5 4.9q-1.4 18.5-3.4 37.2c-3 3.1-4.2 8.3-10.9 6.3l2-19.1-11.3 24c5.8-1.2 10.2-2.2 14.7-2.7zm-39.6-191.6.1-.6z"/><path fill="#f8fcfd" d="m496.6 535.6-3.8 5-.9-.1.6-5.5c2.4-23.8 11.4-46 16.8-69.2 5.2-22 9.1-44.3 13.4-66.5.7-3.6 1.7-8.3-3-10-4.8-1.8-7 2.4-9.3 5.7-12.2 17.7-18.5 37.8-24.2 58.3q-1.9 7.4-5 14.6v-10.4c1.2-29 .5-57.8-4.9-86.6-1.4-7.5 1-15.8 1.9-23.7l9.4-76.2c3 6.7 5.5 13 8.3 19l63.7 135.5c1.5 3.1 1.7 5.3-.6 8.4-5 6.9-5.8 14.8-2.6 22.7 1.1 2.8.8 4.4-1 6.6z"/><path fill="#fafcfd" d="m529 316-19-41.5.7-1q4.6 2.5 8.8 5.5 62.2 48 124.3 96.4c2 1.5 5.2 2.9 5.6 4.7.7 3.8 0 7.9-.5 11.8 0 .7-1.3 1.4-2 1.9l-52 32c-1.1.7-3.2.5-4.7.3-1.6-.3-3.2-1.7-4.7-1.6-6.8.3-8.4-4.4-10.7-9.5q-22.6-49.4-46-99"/><path fill="#fafdfd" d="M595 594.1 513.7 564c-4.7-1.7-7.5-10.2-4.4-14l60.7-75.6c.8-1 2.3-1.6 3.4-2.4.7 1.2 1.7 2.4 2 3.7l20.5 90.5 5.4 23a6 6 0 0 1-1.6 2.9q-.7.4-.8 1h-.2l-1.3 1z"/><path fill="#f9fcfd" d="m740 461-3 3.2c-6 6.1-11 7.1-18.5 3.5-.9-.4-1.5-1.7-2-2.7q-12-28.5-23.8-57.1c-.5-1.3.1-3.3.7-4.7 2.8-6.5 8-7.4 14.4-7.3q29.6.4 59.7.2-2 5.4-4 11.8-4.2 14.3-8 28.8A46 46 0 0 1 740 461"/><path fill="#f8fcfd" d="m699.2 470.7 1 5.3c-1.6-.1-3.2 0-4.7-.5q-43.8-13.7-87.5-27.6c-1.6-.5-3-2-4.4-3 1.1-1.4 2-3.2 3.3-4.1l47.5-30.6c3.4-2.2 6.6-4.4 10.5-.8q1.2 1 2.7 1.1c6.8-.3 8.5 4.6 10.5 9.7q10.3 25 21.1 50.5"/><path fill="#0f98f3" d="m825.1 444.1-30.7 12.8q-27.3 12-55.2 23.8-2.6-3.1-4.5-5.8c1.2-1.5 2-3.5 3.6-4.6 17.7-12.3 22.3-31.5 27.7-50.6q5.8-20.5 13.5-40.5c3.3-8.4 8.2-16.3 12.5-24.3.2-.4 1.2-.3 2-.2l-.1 6.3-2 15-.9 5.8c.4.9.7 1 1 1.2l3.9.5q-.4 3.1-1.4 6c-4.8-.2-6.6 1.6-7.8 6-2.4 8.8-5.7 17.3-9 25.8q-3.1 8-6.9 16l.9.6q1.4-1 3.5-1.9 2.8 2.6 4.7 5.5L766.2 456c2.2.4 3.6-.1 5-.8q11.1-5.7 22.3-11a312 312 0 0 1 22.7-9.1zm-54.6-4.7-.2-.1z"/><path fill="#0e73ac" d="M595 594.4q.9-.3 2.7-.5a3 3 0 0 0 1.2-1h.2q.7-.6.9-1l1.5-2.5q2-.9 4.6-1.3c7.3-.5 7.5-.8 6-7.2q-.2-1.4.2-2.9 3 3 5.8 6.3c1.8 4.5 3.8 3.1 6 .7q12.1-14 25-28.2 2.6-3 4.8-5.9h.2l.8-1 .1-.1.8-1h.2q.5-.7.6-1.1h.4c5.4-.7 6.4-4.5 7-8.7l.2-.1q.6-.5.8-1.2t1-.9q.7-.6.9-1h.3q4.6-1.5 8.5-2.5L626 590.7l6.1 4.4 12.4-14 32.8-37.6 24.4-27.6q2.8-.5 5.8-.5-1.2 3-3.2 5L642 592c-.8.9-1.3 1.9-2.7 3.7l92.7-20.8-5.8-20.8-10.4-38q2.3 2 5 4 1.2 2.5 1.2 5.7c-1.9 3.4-.5 6.2 3 7.3l10 33.6c.2 1 .3 1.5.7 2.6l1.1 2.2.1 1.6.2 1c1 3 .5 4.5-3.2 5.3q-48.6 10.9-98 22.5-2.5.4-4.3.1-4.7-9.4-14.7-10a24 24 0 0 0-16.1 5.8L595 596z"/><path fill="#0992f6" d="M585 492v-1l-1-3q-1.9-8.2-4-16.2c-.4-1.7-1.7-4.4-2.5-4.4-3.4 0-7.5-3.8-10.3 1.3q-.9 1.4-2.9 2.1-2-3.1-3.3-5.9c2-2.4 3.2-4.5 1.5-8.2a20 20 0 0 1 4-22.8c6.2-5.6 13-6.6 21.5-2.4l3.6 1.9 6.5 11.6c0 1.7 0 3.4-.2 5.9-1.1 3.2-2 5.6-3.2 8.2-2.2 1.8-3.8 4-6 5-3.5 1.5-3.4 3.4-2.4 6.6 2 6 3.2 12.1 4.7 18.6-.8 4.5-4 2-6 2.7"/><path fill="#0f6caa" d="m488.9 628.8 3-37c.3-2.5 0-4.7-3.4-4.9-.8 0-1.6-1.1-2.4-1.8.9-1 1.6-2.3 2.6-3 3.7-2.3 8-3.9 11.2-6.8 2.2-2 3-5.6 4.4-9q2.3.1 4.5 1.7c-2.5 6.9-2.5 7 3.8 9.4l31.1 11.7q17.7 6.4 35.3 13.2 1.1 3.2 1.6 5.7l-72.8-26.9c-4.7-1.7-11 2.8-11.2 7.9q-.2 13.2-1 26.4c-.1 4.4-1 8.7-1.5 13.4l15.9-4.6c24.5-7 49.6-10.8 74.7-13l-8 5.1c-18.9 3.7-37.5 6.9-56 10.6-9.3 1.9-18.4 4.8-27.8 7z"/><path fill="#0ca8f6" d="M736.2 494.6c-3.7 11.9-11.4 16.9-21.8 14.8-12-2.5-16.5-13-13.3-23.3l.9-2.7c8.5-11.2 16.7-13 28.8-6.1l5.1 5.7z"/><path fill="#109ff5" d="M477 644.9c2 .5 3.8 1 6.4 1.9-.5 4-.7 8.2-1.6 12.1a105 105 0 0 1-24.3 45l-4.7 6-4 4.4c-.4-3-.6-5.1-.7-7.4l.8-2 2.4-5.7 21.6-50.3c.8-1.6 2.7-2.7 4.1-4"/><path fill="#0d8bef" d="M560.7 465q1.7 2.6 3.3 6-6.1 9.5-13 18.3-16.6 20.4-33.5 40.8-5.8 7.3-11.5 15l-2.8 3-6-4.6z"/><path fill="#109ff5" d="M585 492.4c2-1.1 5.2 1.4 6.3-2.8q2.7 9.6 4.9 19.6l6.8 30.4 9 38.4q0 1.5.3 3c1.4 6.3 1.2 6.6-5.8 7.1a8273 8273 0 0 1-21.5-95.7"/><path fill="#11a2f3" d="m579 602-35.3-13q-15.5-5.6-31-11.6c-6.4-2.4-6.4-2.5-3.8-9.1q38.9 14 77.6 28.3 2.1.8 5.3 1.7c.9 2.7 1.1 5 1.4 8.4-5.7-2-10-3.3-14.2-4.7"/><path fill="#109ff5" d="M705.1 391h-5.7v-8h72.8c-.8 3-.2 7.1-6.3 7.1-20 0-40.2.6-60.8.9"/><path fill="#0d92f5" d="M696.1 482.6q.2 2.8-.6 5.9-36.6-10.5-72.3-21.9l5.8-5.7q15.1 4 30.2 8.3 16 5.1 32 10.7 2.4 1 5 2.7"/><path fill="#0d8bef" d="M705.3 471.6q-6-13.5-11.4-26.7l-14.3-34.6 6.4-4.7q8.4 20.3 17 40.5 3.4 8 7 15.9c3 6.7 2.9 7.2-4.7 9.6M597 432q11-7.6 22.3-14.8 16.9-10.6 34-21l4 6.6L619 426c-5.4 3.3-10.5 6.9-16.3 10.8a31 31 0 0 1-5.8-4.8"/><path fill="#0773b2" d="M579 602.3c4.2 1 8.5 2.5 14.2 4.4-.3-3.4-.5-5.7-1-8.4q.8-1.4 2.5-2.3 3.2.6 6 2a25 25 0 0 0-1.8 23.1c-1.2 1.3-2 2.5-3.3 3.8l-19 15-2.5.2.8-6q-5.4-.4-10.4-1.4 14.7-5.6 29-10.7c0-6.3-2.4-7.9-7.6-6.4-2.8.8-5.9.4-8.9.5q3.7-2.1 7.7-4.9.2-.3.4-.3l.4-.3q0-.2-.3-.5t-.4-.9q-2-.8-3.9-1.2zm-102 42.2c-1.4 1.7-3.3 2.8-4 4.4l-21.7 50c-7-3.4-2.1-7.4-.8-11.3l1.5-5.4c2.8-5.3 5.8-10 8.4-15a422 422 0 0 0 11-23.3c1-2.5 2.4-3.2 5.2-2.8q.5 1.4.4 3.4"/><path fill="#036fc7" d="M463.6 357c1.5 39.7 3.6 79.5 2 119.3h-1.8l-.5-28.7-.1-47.4c0-6-.7-11.9-1.2-17.8q-.6-6.4-1.7-13.1 1.2-6.2 3.3-12.2"/><path fill="#0d8bef" d="M628.8 460.7q-2.3 3-6 6-11.3-3.1-21.8-7l2.1-7.6z"/><path fill="#036fc7" d="M484.5 482q-2.3 16.5-5.4 33.2h-1l-3-30.8q4.4-1.6 9.4-2.4"/><path fill="#0d8bef" d="m448 707.2.7 7.1c1.8-1.9 2.7-3 4-4.2-1.7 8-7 13.9-12.2 19.8l-1.8-.7 4.7-18 1.8-4.1h2.9"/><path fill="#036fc7" d="m596.6 432 6 5a57 57 0 0 1-4.2 8q-3.4-5.5-6.4-11.6 2-.9 4.6-1.4m6.2 20q-.5 3.6-2.2 7.6-3.1 0-5.6-.6l2.9-7.7q2.2 0 4.9.7m133.4 31a52 52 0 0 1-5-5.7q1.2-1.4 3.2-2.3a50 50 0 0 1 4.5 5.8q-1 1.1-2.7 2.1"/><path fill="#0773b2" d="M444.8 707a10 10 0 0 1-1.4 3.8q-1-1.3-1.4-3.4 1.1-.5 2.8-.3m3.3-.2q-.7.3-1.7.2.4-1 2.2-2.1 0 .6-.5 1.9"/><path fill="#109ff5" d="M584 488.4q.4.6 1 2.4-.6-.7-1-2.4"/><path fill="#0d69a7" d="M788.3 351q0-.5 1-1.4 0 .6-1 1.3m-1.3 1.9q-.2-.7.7-1.7 0 .6-.8 1.7"/><path fill="#11a2f3" d="m780 441.2-4.7-5.5q1.6-2.8 3.5-5c3.5-4.3 8-8.3 10.2-13.2 4-8.5 6.7-17.7 10-26.5h.4l8.7 2-.3.9-.7 1.3q0 1-.3 2.6l-.2 1.4.4-1.2q5.3-6.3 10.2-12.8c7.8-10.9 16.3-21.4 22.9-33 7.9-14.1 14.2-29 20.8-43.7q15.7-34.7 31.1-69.6a8 8 0 0 1 2.5-3c.4 18.4-5.3 35.4-11.3 52.6s-14.7 33-23.3 49.3q2.2-1.7 4.3-3.7c15.3-18.7 32-36 52-49.8 6.3-4.2 13.2-7.6 19.8-11.4l1.2 1.4q-4.1 5.9-8.6 11.5a299 299 0 0 1-42.3 39.3c-12 9.6-23.4 20.1-35.5 30.7L829 382l1 1 28-24a267 267 0 0 1 46.6-29.7q3-1.4 7-2.2.6.1.6.3c-6.3 6.2-12.3 13-19.2 18.5q-22.4 17.8-45.2 35c-1 .8-1.7 1.7-3 2.9-3.3 2.9-6.1 5.5-9.3 8.1q-17.4 14.9-34.3 29.8-10.7 9.6-21.1 19.6m78.3-101.7"/><path fill="#0f98f3" d="M808.2 392.7q-4.2-.6-8.7-1.6a122 122 0 0 1 2.6-11L805 366c2.6-10.4 5-21 8-31.3q6.6-21.2 14-42.5.5-1.6 2.2-2.7c2.3 36.2-6.7 70-21 103.2"/><path fill="#0773b2" d="M798.6 391c-2.9 8.8-5.6 18-9.6 26.5-2.3 4.9-6.7 8.9-10.2 13.2-1.2 1.6-2.5 3-3.9 5q-1.7 1.4-3.2 2.2l-.9-.6q3.8-8 7-16c3.2-8.5 6.5-17 9-25.8 1.1-4.4 2.9-6.2 7.7-5.5z"/><path fill="#18c1f8" d="M846 387.2c4.5-2.5 8.5-6 15-5q9.3.3 17 1.4.1 3.4-.4 6.2l-14 .3h-7L844 390z"/><path fill="#0773b2" d="M857.6 359q-13.5 12-27.7 23.8l-.9-.9 21.7-25.8c2.4.9 4.4 1.9 6.9 2.9"/><path fill="#047bb6" d="M846 386.9c-.4 1-.9 1.6-1.9 3 4.4 0 8.2 0 12.4.5-1 1.5-2.4 3.3-3.9 3.4q-6.6.6-13.2 0c-1.2 0-2.4-1.3-3.5-2l8.7-7.9q.9 1.2 1.3 3"/><path fill="#0e7aab" d="m878 383.1-16.5-1c.4-1 1.2-2.8 2.3-3 1.8-.3 3.8.3 5.7.6 3.7.7 7.2.7 10.2-2.6q.6-.1.4.4l-.1 1.5-.3.2z"/><path fill="#0773b2" d="M804.6 366q-.8 6.5-2.5 13.7c-.9 0-2-.2-2.3-.7-1.4-2.6 1.5-11 4.8-13"/><path fill="#d8f1fa" d="M894.6 324.9q.7.8 1.3 2-6.8 4.9-14 9.4l-.8-1.2q6.5-5.1 13.5-10.2"/><path fill="#0773b2" d="M792.3 376q.6-7 1.6-14.6c.7 2.2 2 4.8 1.9 7.3-.2 2.4-2 4.8-3.5 7.2"/><path fill="#d8f1fa" d="m798.6 363 2-.8q-1.1 7.1-2.7 14.5l-1.3-.3z"/><path fill="#0e7aab" d="M884 372.1q-.4 1.5-2.2 3.5-.7 1-.8 1.4h-.2l-.6.2-.2-.2q1.7-2.5 4-4.9"/><path fill="#d8f1fa" d="M799 353.5q.5 2.6.4 6.2-.5-2.7-.3-6.2"/><path fill="#11a2f3" d="m914 326-1.5 1.2q-.4 0-.6-.3l1.8-1z"/><path fill="#0773b2" d="M791.9 382.8q-.3 0-.9-.6.3 0 .9.6"/><path fill="#0f98f3" d="M807.3 395q-.1-.2.4-.9.3.4-.4 1"/><path fill="#11a2f3" d="M914 326h.1q-.2 0 0 0"/><path fill="#15dbfa" d="M517 749.6c-8.7 14.1-17 28.1-26.1 41.5a99 99 0 0 1-31.3 31.6c7.6-24.5 21.4-43.7 35.8-63.4l3-4.2 36.5-48q-7.7 7-16 14l-.9 1h-.2l-.8 1h-.2l-.7 1h-.4l-3.7-.8c1.8-3 5.9-6.8-1.9-5.6-.3 0-.8-1.2-1.3-1.8h.3l.8-1h.3l.7-1h.3l.8-1h.2l.8-1h.2l.8-1h.2l.8-1q0-.4 1-.8 1.5-1.1 2-2l.4-.1 1.5-1.1h.3l.7-1h.3l.7-1h.3l.8-1h.2l.8-1a21 21 0 0 1 5-4h.2l.7-1h.3l.7-1h.3l.8-1h.2l.8-1q0-.4 1-1 1-.4 1-.8l.3-.1q1.1-.6 1.6-1.1h.3l.7-1h.3l.7-1h.3l.7-1h.3l.7-1h.3l.7-1.1q1.7-1.8 4.1-3.7l2-1.2.2-.1.7-1.1 2.1-2.6 1-.3c8-2 8-2 8-8.8l.2-.1.8-1h.2l.8-1h.2l.9-1.4q1.3-1.4 3-2.6c3.8 1 7 2 7 6.4q-.1.7-1 1.7-1 1.2-1.1 2l-.2.1q-.7.5-.8 1h-.2l-.8 2h-.2l-.7 1h-.3q-.6 1.1-.7 2h-.3l-.7 1h-.3l-.7 2q-.2.7-1.1 1.9l-1 1.3q-9.8 32.6-19.9 65.2c-1.3 4.2-3.5 8.1-5 12.3-.6 1.4-.1 3.2-.4 4.7q-5.4 28.5-18.1 54.2l-1.4 1c-1-16-.5-31.4 3.2-47.3l6-21.1 13.4-41.7-1-.5L518 748zm18.7-45.5.5-.2zm6 4.8-.4.2z"/><path fill="#15dbfa" d="M576.9 639.8a568 568 0 0 1 19-14.7q2.6 1.5 4.1 3c.2 1.1.8 2.5.6 3.6-3.8 16.7-8 33.2-11.4 50-5 24.3-9 48.9-14.3 73.2-2.4 10.8-6.8 21-10.3 31.6l-2.2-.2c-.8-6.9-2.6-13.8-2-20.6.9-14 1.8-28 5-41.4 5.7-23 13-45.7 19.8-68.4.7-2.4 1.8-4.6 2.7-7.6-3.6-3-7.3-5.1-11-7.6zm36.9-6q5-2.2 5.4 2.9c2.6 20.9 5.8 41.7 7.7 62.7 1 12.9.2 26 .1 38.9q.2 2-1.8 4.3c-2-5.6-4.3-11-6-16.6a174 174 0 0 1-9-54.9c.2-11 1.2-21.9 2-32.8q.2-2.2 1.6-4.5"/><path fill="#11def8" d="M599.2 621a23 23 0 0 1 1.7-22.7c4.7-4.2 9.8-6.7 16-6.3 6.7.4 11.6 3.5 14.8 10.3q.9 2.2.9 4-.5 5.6-.5 10.7l-.4.1q-1 2-1.8 4.2-.3.6-1 .8-.7.6-.9 1h-.2q-.7.4-.8 1h-.2q-.7.4-.8 1h-.2q-.7.4-.8 1.1v.7c-.7.1-1.3.2-2.7.2L612 629q-.5.1-1.8-.4-2-1-3.5-1.4l-.6-.4q-1.2-1.1-2.2-1.6v-.3l-1.2-1z"/><path fill="#0d7bad" d="m518.3 748 21.4-37 1 .6q-6.4 20.4-13.4 41.3a28 28 0 0 1-5-2l-.1 1q-1.7-2-3.9-3.9"/><path fill="#11d7f5" d="M577 641q5.5 3.1 10.9 6.9-2.9 4-6.9 8a23 23 0 0 1-6-4.4q.6-1.8.9-3.7-.5 0-1 .6-.2.6-1.2.6c-4.6.3-3.5-2.8-3.7-5.1q.5-.4 2-1 1.4-.5 2-1h.2z"/><path fill="#1ad5f9" d="M575 651.8q2.5 2.1 5.8 4.2-3.2 6-7.4 12.1c-.4-4.1-3.5-5.3-7.1-6.5a151 151 0 0 1 8.6-9.8"/><path fill="#0d7bad" d="M525.6 758q-1.7 7.7-4.2 16a16 16 0 0 1 0-14.2c.4-1 2.5-1.3 4.2-1.8"/><path fill="#d8f1fa" d="M561.4 714.1c-.7-.7-1.1-1.8-2-3q2.9-9.9 6.2-19.7l1.3.4q-2.5 11-5.5 22.3"/><path fill="#04abd5" d="M625.3 627q-.6-.1-.1-.9l.8-1 .2-.2q.7-.4.8-.9h.2q.9-.5.8-1h.2q.8-.6.8-1 .5 0 1.2-.9 1.1-1.4 1.9-1.9 1.5 2 2.9 3.5l-4.1 5.2q-2.7-.2-5.6-1m-26.4-5.8q1.8 1.1 3.8 3 .4.8.3 1-1.4 1-2.9 2.6-1.8-1-3.9-2.8.9-1.9 2.7-3.8"/><path fill="#16d7f8" d="M612.4 629q4.2-1 9.6-1.9c-2.4 2.6-5.6 3.6-9.6 2"/><path fill="#d8f1fa" d="M557.3 738.7q-.1-2.3.4-5.5.2 2.4-.4 5.5m-3.8-8q0 2.8-1.2 6.1.2-2.7 1.2-6m5.8-5a15 15 0 0 1 .4-4.5 15 15 0 0 1-.4 4.5"/><path fill="#16d7f8" d="M607 627.3q1.2.1 3 1-1.4 0-3-1"/><path fill="#d8f1fa" d="M556.7 719a6 6 0 0 1-.4 2.8 6 6 0 0 1 .4-2.7"/><path fill="#16d7f8" d="M604 625.4q.9 0 2 1.2-.9-.2-2-1.2"/><path fill="#d8f1fa" d="M558.7 712q.1 1-.4 2.8-.2-1 .4-2.7m-.2 18.2q-.3-1 .1-3 .4 1 0 3"/><path fill="#1ad5f9" d="M569.3 674.9q-.2-.6.5-1.7.1.6-.5 1.7m-4 6.1q-.1-.6.5-1.8.2.6-.5 1.8m5.9-9.2q0-.6.7-1.6 0 .6-.7 1.6m-3.9 6.1q-.1-.6.5-1.7.2.6-.5 1.7"/><path fill="#d8f1fa" d="M554.6 726.8q.1.6-.3 2-.1-.7.3-2m1.9 17.6q-.3-.8.1-2.1.3.6 0 2m-1.1-20.7q.2.2-.2 1.2-.1-.3.2-1.2m5.3-5.9q-.6 0-.1-.6.2 0 .1.6"/><path fill="#1ad5f9" d="M570.3 673q-.3-.4.5-.9 0 .3-.5.9m-2 3q0-.3.5-.9 0 .3-.5.9m-2 3q0-.3.5-.9.2.3-.5 1m-3 5q-.1-.2.5-1 0 .3-.5 1"/><path fill="#16d7f8" d="M603.2 625q-.2-.1-.3-.7.4 0 1 .6-.1.3-.7.2"/><path fill="#17cbf9" d="M569.6 644c.6 2.2-.5 5.3 4 5.3a17 17 0 0 1-4 4L545 670l-21 12.4a243 243 0 0 1-58.8 24.3q-1 .2-1.9-.1c2.4-9.2 9.6-13.4 17-17.3l68-34.6z"/><path fill="#18c1f8" d="M576.7 616.3c3.3-.3 6.4.1 9.2-.7 5.2-1.5 7.6 0 7.7 6.4L564 632.6c-3 .7-5.7 1.1-9 1.6q-1.2.4-1.3.7l-2.8.2-16.2 3.7-9.9 1-15 1.5a228 228 0 0 1-26.4-.4q-.6-1.4 0-3.4 5.2-2 9.7-3.4c9.1-2.4 18.2-5.3 27.4-7.2q27.8-5.4 56.1-10.6"/><path fill="#f4fbfd" d="M557 644q-10.7 5.2-21.3 10.6-27.3 14.3-55.3 28.4-1-.4-1-.6 4.6-15.9 9.7-31.8c.4-1.4 2.3-3.4 3.5-3.3 20.7.4 41-3.6 61.9-7.5q1.8-.3 2.5-.7l1.9-.2q1.5 1.6 2.1 3l-.7.3q-1 .4-1.3.7l-.7.3q-1 .4-1.3.8"/><path fill="#1ad5f9" d="M508.5 716c.8.5 1.3 1.7 1.6 1.7 7.8-1.2 3.7 2.6 1.9 5.6q1.8.3 3.6 1A2261 2261 0 0 1 477 758a160 160 0 0 1-39.4 22.2q-1.4.5-3.2.8h-.4c4.9-5.3 9.3-11.2 14.7-15.9q28.6-24 57.4-47.7.9-.7 2.4-1.4"/><path fill="#0d7bad" d="m477 758.4 39-34q0-.3.3-.4l.8-1h.2l.8-1h.2l1-1 15.6-14a3129 3129 0 0 1-36.5 47.7c-.6-2.8-1.7-3-3.9-1.8-.5.3-1.6-.6-2.3-1q.7-.4 1-1l-.4.2-1.2 1q-4.1 3.3-7.6 6.8-3.5.1-7-.5"/><path fill="#047bb6" d="M545.3 670.1q12-8.5 24.4-16.9 2-1.6 4.3-3.9l1.2-1 .8-.3-1 3.5-9.1 10-3 3.2-1 1.3h-.2l-.8 1h-.2l-.8 1h-.2q-4.4 4.6-8 9l-.6-.1z"/><path fill="#0773b2" d="M510 641.6a162 162 0 0 1 14.6-1.7q.8 4.5-3.6 4-5.5-.6-11-2.3m25.2-2.6q7.1-2 15.4-3.9c-1 1.6-2.2 4.3-3.8 4.5-3.6.5-7.5-.2-11.6-.6"/><path fill="#d8f1fa" d="M528.5 690.2a7 7 0 0 1-.5-2.8q6-4.5 11.9-8.5l.7.9z"/><path fill="#0773b2" d="M487 641.6q4.6-.4 9.7 0-4.5 5-9.6 0"/><path fill="#d8f1fa" d="m561.4 642-2.2-3q4.3-1.3 9.2-2.5l.5 1.6z"/><path fill="#17cbf9" d="M577 640.7q-1.1.9-2.8 1.2-.3-.5-.2-1.5 1.1-.4 2.5-.5.5 0 .5.8"/><path fill="#f4fbfd" d="M480 683q-.3.9-1.3 1.5.1-.9.5-1.9.4 0 .9.5"/><path fill="#1ad5f9" d="M517.8 707.2q-.3.8-1.5 1.8.3-.8 1.5-1.8m1.8-1.2q0 .4-1.2 1 .1-.5 1.2-1"/><path fill="#17cbf9" d="M573.6 642q-.2.4-1.4 1 .3-.6 1.4-1"/><path fill="#1ad5f9" d="M547.6 680.9q-.2.5-1.3 1 .2-.4 1.3-1"/><path fill="#d8f1fa" d="M556.7 639q-.4.5-1.8.8.3-.4 1.8-.7"/><path fill="#1ad5f9" d="M528.6 697.9q-.1.5-1.2 1 0-.4 1.2-1m8-7q0 .5-1.2 1.1.2-.5 1.2-1.1m-5.9 5.1q0 .3-.6.8 0-.2.6-.8m-1 1q0 .3-.6.8 0-.3.6-.8m-6 5q0 .3-.5.9 0-.3.5-.9m-1 1q0 .3-.5.9-.2-.3.5-.9m-1 1q0 .3-.6.8zm-11 10q0 .3-.6.8 0-.2.6-.8m10-9q0 .3-.6.8 0-.2.6-.8M434 781h-.2zm75.7-66q0 .3-.6.8 0-.3.6-.8m2-2q0 .3-.5.8-.2-.2.5-.8m1-1q0 .3-.5.9-.2-.3.5-.9m1-1q0 .3-.5.9 0-.3.5-.9m1.1-1q0 .3-.6.9 0-.3.5-.9m34-30.2q0 .3-.5 1-.2-.3.5-1m-7 6.2q0 .2-.5.8-.2-.3.5-.9m-1 1.1q0 .3-.6.8zm-1 1q0 .3-.6.8 0-.2.6-.8m-1 1q0 .3-.6.8 0-.3.6-.8m-1 1q0 .3-.6.8 0-.3.6-.8m-2.9 2.2q.1.3-.6.7-.2-.4.6-.7m-2.1 1.8q0 .3-.5.9 0-.3.5-.9m-1 1q0 .3-.6.8z"/><path fill="#0773b2" d="M554 634.9q0-.4.7-.6.1.4-.7.6"/><path fill="#d8f1fa" d="M559.3 643q0-.5.8-.8 0 .4-.8.7m-2 1.1q0-.4.9-.8 0 .4-.9.7"/><path fill="#0e6fa7" d="M484.3 758.9q3.1-3.4 7.3-6.9h.4c.9.3 2 1.2 2.5.9 2.2-1.3 3.3-1 3.6 2q-1 2.2-2.6 4-3.6 1-7.3 1.4c0-4.1-2.2-1.5-3.9-1.4"/><path fill="#0e75a7" d="M517.8 757.2q0 .6-.5 1.7-.2-.6.5-1.7m-.9 1.8v.7q-.4 0-.4-.4z"/><path fill="#0e7aab" d="M1080 594.3q3.6-1.4 7.4-2.3.6 2 .2 4.8l-.5 1.5a129 129 0 0 1-13.7 52.5c-2 3.7-4.8 7.4-8.2 9.8-6.8 4.9-14.2 9-22.1 13.2q-3.2-1.3-5.2-2.4.6-1 1.5-1.4c17.3-6.8 30.2-17.4 35.7-35.7 3.6-11.8 4.8-16.3 2.6-20.2a194 194 0 0 1-35.6 51.8c-1.2 1.2-2 2.8-3.3 4l-2 1.8q-2-1.8-3.8-3.8a220 220 0 0 0 34.8-45.4c4.8-8.8 8-18.5 12.2-28.2"/><path fill="#0282b4" d="m1037.8 671.6 5 2.2q-19 9.9-38.2 19.3l-.5-1.2 28.6-23.8 4.2 3.6q.5 0 .3.2.3 0 .5-.3"/><path fill="#04abd5" d="M1115.3 618.3q1-.8 1.8-1.2l.7.7-2.5 3.2-1-.6q.3-1 1-2.1"/><path fill="#0e7aab" d="M951 704h-.1q.2 0 0 0"/><path fill="#0282b4" d="M1087.3 598.1q-.3-.1.3-.9.3.3-.3 1"/><path fill="#0e7aab" d="m1070 577-3.6 1.7q4.3 3.2 8.6 7c-6.6-5.4-12.8-2.9-19.8.1-18.3 7.9-37 15.1-55.4 22.5-2.3 1-3.7 1.7-4 4.8a24 24 0 0 1-24.9 21.8 24.6 24.6 0 0 1-23.1-24.3c-.1-1.6-1.8-3.8-3.3-4.6l-53.4-27.6q2.8-.8 7-1.3c17.1 8.3 33.5 16.6 50.2 25.2q3 .6 5.8.7c-.3 3.8-1.3 7.7-.7 11.3 1.7 9.4 11.4 16.6 20.1 15.6 10.2-1.2 16.6-8.8 16.5-19.5q0-1.6.3-4 2.1-1.2 4.2-1.5 19.7-7.6 38.6-15.4l31.3-13.5 4-1zm-187-2.6q1.8.3 3.9 1.4-1.8-.2-3.9-1.4m-1.7-.5q.1-.8.8-1.5l.8 1.5q-.6.2-1.6 0m5.7 2.5q.6-.2 1.8.5-.6.1-1.8-.5m2 .9q.7 0 1.8.6-.6 0-1.7-.6M1089.6 330q1.7.3 4.4 1.3 1 3 1.1 5.7.1.7.7 1.3.8 5 1 10-1.9 3.4-3.3 6.5-.5-2.1-.8-5.1 0-1.3-.4-1.6a176 176 0 0 1-2-12l-.4-3v-2.7z"/><path fill="#0d7bad" d="M1093.5 354.8q1.4-3.1 3.5-6.3 2 9.8 2.8 19.4l-4.3-1 .2-.8c-.6-4 2.5-8.4-2.1-11.2"/><path fill="#0e7aab" d="M1095.5 367.4q1.8-.1 4.5.8 1 1 1.1 1.8l.2 1.7q0 .6-.2 1c-4.5 0-2.5 3.7-3.6 6q-1.2-5.2-2-11.3m-2-12c4.7 2.3 1.6 6.7 2.4 10.7a15 15 0 0 1-1.2-4.4q0-1.3-.4-1.6z"/><path fill="#0d7bad" d="M1089.7 330.6q.3.5.3 2-.3-.5-.3-2m2.5 17.8q.4 0 .6 1-.3 0-.6-1m2.1 12q.3 0 .5 1-.3-.1-.5-1m-4-24.1q.5-.1.2.5-.2 0-.2-.5"/><path fill="#0e7aab" d="M880.3 424q3-3.7 6.3-6.6c-.8 6.3-2.1 12-3.2 18l-6.5 35.2L869 510c-2.3-1.4-3.3-.2-4 1.9q-.4 2-1.6 4 6.2-35.6 13-71.4a26 26 0 0 1 1.5-5.4q1.5-7.4 2.2-14-.2-.4.1-1"/><path fill="#0f6caa" d="M880.1 425.4q-.6 6.3-1.9 13.4.6-6.2 1.9-13.4"/><path fill="#0e7aab" d="m989 469.5 1-3.9q.6-.5 1.7-.6 2.4 2.1 4.2 4.7.1.5-.4.6-1.3 2.3-1.5 4.7l-5.8 59.6-5.2 51.7c-.4 4.5 4 7.5 8 5.8l65.4-27.4c4.1-1.7 6.5-10.2 3.8-13.6l-16.8-21.2L999 474l.1-.1 4.5-.7q15.8 18.7 31.2 37.5l9.2 11 4.4 5.2 18.2 22.2q1 1.5 1.4 4l-.1 1.8-.2.2q-.7 1-.8 1.9l-.3.2-2 9.8-4 2-28.8 12-41.2 17-3.7 1.2c-1.4-1.3-2.5-3.1-4.1-3.6-6.3-2-5.5-6-4.7-11.2q2.3-17.8 3.8-35.6 3-32.4 6.7-65.3c1.5-1.6 3.2-2.8 3.2-4 0-1.1-1.7-2.3-2.6-3.5z"/><path fill="#04abd5" d="M954.3 602.9q-3 0-5.7-.7 2.8-2.9 5.5-5.2l3.6.1q-1.1 2.9-3.4 5.8m32.7-3.4q1.4-1 3.8-1.2 2 3.5 3.3 6.5l-3.8 1.1q-1.8-2.9-3.4-6.4"/><path fill="#0282b4" d="M989.1 476.4c1 .8 2.7 2 2.7 3.1s-1.7 2.4-3 3.5q-.2-3 .3-6.6"/><path fill="#17daf5" d="M1101.4 369.7q-.5-.4-1-1.6l-3.1-19.8-1.5-10.2q-.3-1.3-.7-1.3l-.7-5.5-1.1-9.9c.6.3 1.5 1 1.7 1.7l7 43.4q0 1.3-.6 3.2m-15.7-105.5a309 309 0 0 1 3.2 18.4l1 10.3q-2.4-13.7-4.2-28.7m7.7 53.5q-2-10.6-3.6-22.3 2 10.5 3.6 22.3"/><path fill="#f7fbfd" d="m902.4 534.4 25-23.2 28.6 80.2-10.6-5.4-50.4-26.3c-2.7-1.4-3-3.2-4-6-2.3-7.4 1.6-11.3 6.6-15.1z"/><path fill="#f4fbfd" d="M903.3 437.8q8 24.7 16.1 48.7c1.4 4 1.2 6.7-2.3 9.8q-17 15-33.7 30.5c-1 .9-2 1.6-4.1 3.1l19-104.1.9-.3z"/><path fill="#11d7f5" d="m869 510.5 7.9-40 6.5-35.1 3.6-18c0-.8 0-1.2.3-2.1l.5-2.3.3-2q.9-4 1.9-7l.8.2 1.2.8 3.6.2c.4.2.4.7.4.7q-2.9 18.8-6.1 37.6l-15.8 86-.8 2.7-7-1.6z"/><path fill="#15dbfa" d="M954 596.7q-2.5 2.9-5.6 5.3l-50-25-13.8-7.5 5-7 62.2 32.3q1 .6 2.1 1.9"/><path fill="#17daf5" d="M884.4 560.8q0-4.2.7-9.4-.1 4.2-.7 9.4"/><path fill="#13e1f9" d="M896.4 405.9c-.4 0-.4-.5-.4-.7q1.5-.7 3.6-1.2.3.6-.4 1.4-1.2.4-2.8.5"/><path fill="#17daf5" d="M884 546.6q-1-1.2-2-3.3 1 1 2 3.3m-5-6.9a7 7 0 0 1-3-1.4 7 7 0 0 1 3 1.4m6.1 10.9q-.6-1-1-3.3.5 1 1 3.3m-1.7 12.6q-.1-.7.4-2 .3.7-.4 2"/><path fill="#0e7aab" d="M739 509.6q2.7.5 6 2.1-3-.5-6-2m6.1 2.6q2.1.3 4.7 1.5a17 17 0 0 1-4.7-1.5m-11.7-2.1q.2-.5 1.4-1.2-.3.6-1.4 1.2m3.9-1.2q.5-.3 1.4.1-.6.3-1.4-.1m-102 113.8a16 16 0 0 1-3.2-3.9v-1.8l.2-.3 2-5.9q2.1-.4 3.7-1l43.2-9.4 52.3-11.8c7-1.5 7.4-1.2 9.4 5.6l6.7 21.7 8.2 29.5 19.1 65.2 5 16 2.3 10a16 16 0 0 1-3.9 3q-1.4-1.2-2.6-2.7L758 720.5l-54.6-43.7-1.4-.9v-.2l-1-.8-.1-.2q-1-.6-1.8-.8l-.1-.3q-.4-.5-1-.7v-.2q-.4-.6-1-.8v-.2l-1-.8v-.2l-1-.7-.2-.3-1.7-1q0-.3-.8-1l-1.3-.8-5-4v-.2l-1-.7-.1-.3-1.8-.8v-.1l-35-28.8c-4-3.2-8.3-6-12.8-9.2m17.4-10.7-15.8 4 140 112.8L737 593.3z"/><path fill="#04abd5" d="M638 609.5q-1.5 1.2-3.7 1-1-2.4-1.5-4.4l-.9-3.6q1.5-.5 3.7-.5a40 40 0 0 1 2.4 7.5"/><path fill="#17cbf9" d="M736.9 571q-.6-.3-1-1.6.4.3 1 1.6m.3 2.9q-.2 0-.2-.7.3 0 .2.7"/><path fill="#11a2f3" d="M825.5 444a80 80 0 0 1-9.1-9.1q26.7-13.5 53.7-25.7l2 5a129 129 0 0 1-46.6 29.8"/><path fill="#047bb6" d="m890 404-2 6.6q-3.6 0-7.5-1 1-1.6 2.4-2.7-3-4.6-7.3-1.8-2.7 1.8-5.6 2.6l3-5.7h.3l4.6-2.3-3.2-3.8a3 3 0 0 1-1-1.2c-3.6-1.3-8.2.6-9.7-4.6q6.4-.2 13.6.1 3.6 5.2 6.4 9.8l1 1.1q1.2.8 2 1v.2q.4.7 1 .6l.7.4z"/><path fill="#17cbf9" d="M870 408.1q3-1.3 5.6-3 4.3-2.9 7.3 1.8l-2.9 2.7-7.7 4.5q-1.2-2-2.2-5z"/><path fill="#047bb6" d="M887.6 413.2q.2.6-.3 1.8z"/><path fill="#fafcfd" d="M880.7 415.6q.4 0 .8.5-.4 0-.8-.5"/><path fill="#13e1f9" d="M884.1 399.7q-3-4.2-6-9.5v-6.6q.6-2.4 1.6-4.4c0 1.7-.4 3.6-.4 5.5 0 3-.3 5.5 4 6.5 6.5 1.5 2 5.2.8 8.5m2.7 2.1q-.6 0-1.6-.6.6 0 1.6.6m-6.7-24.3q.3-.4.7-.5 0 .8-.6 1.8-.2-.3 0-1.3m1-.6q0-.3.5-1 .1.3-.5 1m6.7 25.8q-.4.3-.9-.4.3-.2.9.4m2 1.1q-.3 0-1-.5.3-.1 1 .5m2 .9q-.3.3-.8-.5.3-.2.8.5"/><path fill="#17daf5" d="M1070 252.8q-.6-.3-1.1-1.4.5.2 1 1.4m-1.1-2q-.2.1-.8-.5.3 0 .8.5m2.1 3q-.3.1-.9-.5.3 0 .9.5m.9 1q-.2.2-.8-.5.3 0 .8.5m1.1 1q-.3.2-.9-.5.3 0 .9.5m1 1q-.3.1-.9-.5.3 0 .9.5"/><path fill="#1ad5f9" d="M699.2 674.2q.6-.2 1.7.5-.6 0-1.7-.5m-6-5.2q.6 0 1.6.7-.6 0-1.6-.7m-10-7.8q.6-.2 1.7.5-.6.1-1.7-.5m15 11.9q.3 0 .8.6-.3 0-.8-.6m-13.1-10.9q.3 0 .9.5-.3 0-.9-.5m1.1 1q.1-.1.9.5-.3 0-1-.5m5 3.9q.3 0 1 .6-.3 0-1-.6m4 3.1q.3 0 .9.5-.3.1-.9-.5m1 1q.3-.2.9.5-.3 0-.9-.5m1.1.9q.3 0 .8.6-.3 0-.8-.6m3.9 3.1q.3-.1.9.5-.3 0-.9-.5m1.1 1q.3-.2.9.5-.3 0-1-.5"/><path fill="#13e1f9" d="M1065 567q.6-4.7 1.6-9.8c1 1.4 1.3 3.8 2.6 4.7 3.4 2.5 3 5.5 2.3 8.9l-.5 5.9q-.2.5-.8.3c-.7-.6-1.1-1.2-2-2.3zm25 13.1c-4.2 3-8.9 2.5-13.8.3q6.3-.4 13.7-.3m-22.7-23.3q-.2-.6.4-1.7.2.6-.4 1.7m8.6 23q-.6.3-1.7-.4.6-.2 1.7.4m-2-1q-.6.2-1.7-.5.6-.1 1.7.5m-5.7-24q-.3-.4 0-1.4.2-.4.7-.4 0 .8-.7 1.8m24.8 24.2q-.3.6-1.6 1.1.3-.5 1.6-1m-21-1.3q-.3 0-.9-.5.3 0 .9.5"/><path fill="#fafcfd" d="M665.8 537q-.5-.1-1 .8l-.8 1.2-.3.2q-3.8 4.3-7 8.4l-.3.2-.7 1h-.2l-.7 1-.2.1-.8 1-.2.1q-2.7 3-4.9 6L624 585c-2.1 2.4-4 3.8-5.9-1.1l-24.5-111.7c-1-4.8 2.6-8.3 7.2-7q42 13.2 84.2 26.1c5.3 1.7 10.5 3 11 10l-.4.5L686 513l-19.2 22.8-.2.1z"/><path fill="#f8fcfd" d="M715.6 516q5.5 19 10.6 38l5.8 20.8c-30.7 7-61 13.7-92.7 20.8l2.7-3.7 62.3-71.4q1.8-2.2 3.7-5.1 0-.4.3-.4.6-.4 1-.9h.2l5.5 1q0 .5.6.9"/><path fill="#0e66ac" d="M696 500.8c-.5-6.5-5.7-7.8-11-9.5l-84.2-26c-4.6-1.4-8.2 2.1-7.2 6.9L618 583.6l-5.7-5.6q-5-19.2-9.3-38.4l-6.8-30.4-4.9-20c-1.8-6.4-3-12.5-5-18.5-1-3.2-1-5 2.4-6.7 2.2-1 3.8-3 6-4.9l6 .9 22 6.9 72.8 22c1 .9 2.1 1.8 2 2.6z"/><path fill="#1fbef6" d="M701.8 515.5q-12.2 14.3-24.5 28L644.5 581l-12.4 14-6.1-4.3 50-57.7 18.2-21.9 5.3-4.9 5.4 4.7z"/><path fill="#0e66ac" d="M694 510.9q-8.7 10.8-18 21.8-4.3 1.8-8.8 3.2a944 944 0 0 1 28.4-34q-.5 2-1.3 4.3-.4 2.2-.4 4.7"/><path fill="#0e73ac" d="M714.8 514.8q-2.2 0-5.3-.6-.4-1.6-.3-4.3c2.3 2 3.9 3.3 5.6 5m-5.8-.7q0 .3-.7.8 0-.3.7-.8"/><path fill="#047bb6" d="M725 532.6c-3.5-.7-4.9-3.5-3-6.5q1.9 2.9 3 6.5"/><path fill="#13e1f9" d="M1081 588q0-.4.4-.7v.8q-.3 0-.5-.2"/><path fill="#0e7aab" d="M996 470a5 5 0 0 1 1.9 1.8q-.2.7-.6.5l-1.4-2.1z"/><path fill="#0e7aab" d="M997.9 472.1q.7.4 1.2 1.5.1.4-.4.3l-1.2-1.4z"/><path fill="#0773b2" d="M492.9 634a87 87 0 0 1-9.4 3l-15.1 3.2 11.4-24-2 19.1c6.6 2 7.8-3.2 10.8-6.3q2.2 2.2 4.3 5"/><path fill="#0e66ac" d="m443.4 449.2.2-.5q0 .3-.2.5M599.7 592q0 .3-.6.8 0-.3.6-.8m-1 1q0 .3-.6.8-.2-.3.6-.9"/><path fill="#0f6caa" d="M870 407.7v1l-53.8 26c-7.7 3.3-15.3 6.2-22.7 9.5q-11.2 5.4-22.3 11.1a7 7 0 0 1-5 .8l13.7-14.6c7.2-6.9 14-13.6 21.3-20q16.9-14.9 34.3-29.7c1.5.7 2.7 2 3.9 2q6.6.6 13.2 0c1.5-.1 2.9-2 4.4-3.4q2.9-.5 6.5-.3c2 5.2 6.6 3.3 9.8 4.6-9.4.3-18.6.1-27.7.4a13 13 0 0 0-7.6 2.7 1078 1078 0 0 0-28.8 24q-9.2 8.1-18.3 16.4 7.4-2.2 14-5.2 18.5-7.8 36.7-15.8 15.9-7.4 31.4-15.2z"/><path fill="#0773b2" d="M770.5 439.5v-.1z"/><path fill="#0e66ac" d="M657 547.7q2.8-4.2 6.7-8.5c-.3 4-1.3 7.8-6.7 8.5m-8 9.1q1.9-2.7 4.6-5.8a49 49 0 0 1-4.5 5.8m16.9-20q0-.3.6-1 .2.4-.5 1m-1.9 2.1q0-.3.5-.9.2.3-.5.9m-8.2 9.8q-.3-.3.4-1 .2.4-.4 1m-1 1.1q0-.4.5-1 .2.4-.5 1m-.9 1q-.1-.3.5-1 .2.4-.5 1"/><path fill="#f7fbfd" d="m584.9 609.6.2.7-.2.6a419 419 0 0 0-75 13.3l-15.8 4.6q1.1-7 1.6-13.4.7-13.2.9-26.4c.1-5 6.5-9.6 11.2-7.9q36 13.5 72.8 27 .4 0 .6.2 2 .9 3.7 1.3"/><path fill="#0f6caa" d="M584.8 609.2q-1.5 0-3.6-.9 1.5 0 3.6 1m.2 1.7s.1-.5.3-.6c.1-.2.2.2.2.2z"/><path fill="#0d69a7" d="m807 398-.4 1.2.2-1zm51.5-58.6"/><path fill="#1ad5f9" d="M552 676.8q3.4-4.2 7.6-8.7c.4 6.7.4 6.7-7.5 8.7"/><path fill="#0d7bad" d="M541.7 709q-.2.2-.4 0zm-5.7-5h-.2zm0 0h.1q-.2 0 0 0"/><path fill="#1ad5f9" d="M517.8 722.1q.1.3-.5.9 0-.3.5-.9m1.2-1q0 .3-.7.9 0-.3.6-.9m-2.1 2q0 .3-.5.9 0-.3.5-.9m45.4-57.3q-.1-.1.5-.9 0 .3-.5 1m-1 1q0-.3.5-.9 0 .3-.5.9m-1 1q0-.3.5-.9 0 .3-.5.9"/><path fill="#16d7f8" d="M632.6 606.4q.9 1.5 1.3 4.2c-.4 2.2-.9 4-1.6 6.2q-.1-4.8.3-10.4m-.9 10.7q.4.5.3 1.5-.7 1.3-1.7 2.3a11 11 0 0 1 1.4-3.8m-2.9 5q.2.3-.5.8 0-.2.5-.8m-1 1q.3.4-.5.8-.3-.3.5-.8m-1 1q.2.4-.6.8 0-.3.6-.8m-1 1q.2.3-.6.8 0-.3.6-.8"/><path fill="#17cbf9" d="M575.9 647.8q-.1.3-.6.4 0-.4.6-.4"/><path fill="#0e6fa7" d="M493 751q0 .5-.8.9-.2.2-.2 0t.8-.8h.2m0-.1h.2z"/><path fill="#eaf8fc" d="M1039 670q1.4-2.1 3-4.1a194 194 0 0 0 35.7-51.8c2.2 3.9 1 8.4-2.6 20.2-5.5 18.3-18.4 28.9-35.7 35.7zm0 0-1 1.4-.4.2h-.3a6 6 0 0 1 1.5-1.7z"/><path fill="#0e7aab" d="M1037.2 671.9q.1-.3.4-.3 0 .3-.4.3"/><path fill="#11d7f5" d="M994.5 604.9q-1.8-3-3.4-6.6a1791 1791 0 0 1 69.7-29q2 3.6 3.2 6.7-15.4 6.9-30.9 13.5-19 7.8-38.6 15.4"/><path fill="#04abd5" d="M1064.4 576a54 54 0 0 1-3.3-6.7q1.4-1.4 3.5-2.3a58 58 0 0 1 3.5 7.5q-1.5 1-3.7 1.5"/><path fill="#0d7bad" d="M1095.1 337q.4 0 .6.7-.5 0-.6-.7"/><path fill="#f9fcfd" d="m997.3 472.3 1.4 1.6q22.6 28.1 44.7 56 8.5 10.5 16.8 21.2c2.7 3.4.3 12-3.8 13.6l-65.3 27.4a5.8 5.8 0 0 1-8-5.8l5.1-51.7L994 475q.2-2.4 1.5-4.7 1 .8 1.8 2"/><path fill="#fafdfd" d="m653 612 84.1-18.7 39.7 135.6L637 616z"/><path fill="#f4fbfd" d="M873 402c-10.5 5-20.8 10.4-31.4 15.2q-18.1 8-36.7 15.8-6.6 3-14 5.2 9-8.4 18.3-16.4 14.2-12.3 28.8-24c2-1.6 5-2.6 7.6-2.7 9.1-.3 18.3 0 28 0q.6.2 1.1 1.2c2.5 3.3.1 4.4-1.8 5.7"/><path fill="#0f6caa" d="M873.3 402c1.5-1.3 3.9-2.4 1.6-5.6q1.5 1.3 3 3.3z"/></svg>